#N canvas 724 64 1920 1086 12;
#X obj 643 228 route body;
#X floatatom 643 253 5 0 0 0 - - - 0;
#X obj 79 21 loadbang;
#X text 377 61 listens for the x \, y \, z \, velocity \, and body data;
#X text 323 771 do your audio in here;
#X msg 62 213 20;
#X msg 180 195 20;
#X msg 329 167 20;
#X msg 687 134 20;
#X msg 732 141 60;
#X obj 519 749 topLevelPatch_noVel;
#X obj 412 1064 dac~ 1 2 3 4 5 6;
#X obj 16 314 print;
#X obj 108 508 oscparse;
#X msg 53 360 listen 5005;
#X obj 60 439 netreceive -u -b;
#X obj 108 562 list trim;
#X text 175 353 listens for the x \, y \, z \, velocity \, and angle data;
#X obj 107 624 route x_pos;
#X obj 196 624 route y_pos;
#X obj 284 624 route z_pos;
#X floatatom 284 649 5 0 0 0 - - - 0;
#X floatatom 107 649 5 0 0 0 - - - 0;
#X floatatom 196 649 5 0 0 0 - - - 0;
#X connect 0 0 1 0;
#X connect 1 0 10 3;
#X connect 2 0 5 0;
#X connect 2 0 6 0;
#X connect 2 0 7 0;
#X connect 2 0 9 0;
#X connect 5 0 22 0;
#X connect 6 0 23 0;
#X connect 7 0 21 0;
#X connect 8 0 1 0;
#X connect 9 0 1 0;
#X connect 10 0 11 0;
#X connect 10 1 11 1;
#X connect 10 2 11 2;
#X connect 10 3 11 3;
#X connect 13 0 16 0;
#X connect 14 0 15 0;
#X connect 15 0 13 0;
#X connect 16 0 18 0;
#X connect 16 0 19 0;
#X connect 16 0 20 0;
#X connect 18 0 22 0;
#X connect 19 0 23 0;
#X connect 20 0 21 0;
#X connect 21 0 10 2;
#X connect 22 0 10 0;
#X connect 23 0 10 1;
