#N canvas 0 25 617 847 12;
#X obj 103 228 route x_pos;
#X obj 192 228 route y_pos;
#X obj 280 228 route z_pos;
#X obj 643 228 route body;
#X floatatom 280 253 5 0 0 0 - - - 0;
#X floatatom 103 253 5 0 0 0 - - - 0;
#X floatatom 192 253 5 0 0 0 - - - 0;
#X floatatom 643 253 5 0 0 0 - - - 0;
#X obj 79 21 loadbang;
#X text 377 61 listens for the x \, y \, z \, velocity \, and body data;
#X text 68 395 do your audio in here;
#X msg 62 213 20;
#X msg 180 195 20;
#X msg 329 167 20;
#X msg 687 134 20;
#X msg 732 141 60;
#X obj 264 373 topLevelPatch_noVel;
#X obj 479 434 loadbang;
#X msg 479 471 new myserial /dev/ttyS4 9600 newline floats;
#X obj 479 495 s bela_setSerial;
#X obj 123 90 r bela_serial;
#X obj 123 114 route myserial;
#X obj 123 138 unpack f f f f;
#X obj 157 688 dac~ 1 2 3 4 5 6;
#X obj 16 314 print;
#X connect 0 0 5 0;
#X connect 1 0 6 0;
#X connect 2 0 4 0;
#X connect 3 0 7 0;
#X connect 4 0 16 2;
#X connect 5 0 16 0;
#X connect 6 0 16 1;
#X connect 7 0 16 3;
#X connect 8 0 11 0;
#X connect 8 0 12 0;
#X connect 8 0 13 0;
#X connect 8 0 15 0;
#X connect 11 0 5 0;
#X connect 12 0 6 0;
#X connect 13 0 4 0;
#X connect 14 0 7 0;
#X connect 15 0 7 0;
#X connect 16 0 23 0;
#X connect 16 0 23 2;
#X connect 16 1 23 1;
#X connect 16 1 23 3;
#X connect 16 2 23 4;
#X connect 16 3 23 5;
#X connect 17 0 18 0;
#X connect 18 0 19 0;
#X connect 20 0 21 0;
#X connect 21 0 22 0;
#X connect 21 0 24 0;
#X connect 22 0 0 0;
#X connect 22 1 1 0;
#X connect 22 2 2 0;
#X connect 22 3 3 0;
