#N canvas 22 31 1440 847 12;
#X obj 322 83 inlet~;
#X obj 528 160 env~ 1024;
#X floatatom 527 199 5 0 0 0 - - - 0;
#X obj 535 242 moses;
#X text 817 172 threshold/ref;
#X text 698 166 reduction factor, f 9;
#X obj 528 287 bng 19 250 50 0 empty empty empty 0 -10 0 12 #fcfcfc #000000 #000000;
#X msg 445 352 1;
#X floatatom 585 272 5 0 0 0 - - - 0;
#X obj 592 315 expr (($f1 - $f3)/$f2)-$f1+$f3;
#X obj 417 582 line;
#X text 65 25 limiter patch taken from http://www.pd-tutorial.com/english/ch03s09.html;
#X text 377 88 signal input;
#X obj 362 665 *~;
#X floatatom 286 245 5 0 0 0 - - - 0;
#X msg 285 212 23.33;
#X floatatom 592 355 5 0 0 0 - - - 0;
#X obj 592 378 expr 100+$f1;
#X floatatom 591 413 5 0 0 0 - - - 0;
#X obj 591 436 dbtorms;
#X floatatom 586 466 5 0 0 0 - - - 0;
#X text 495 364 attack time (ms), f 10;
#X text 565 502 release time (ms), f 9;
#X obj 361 717 outlet~;
#X obj 724 203 inlet;
#X obj 803 194 inlet;
#X msg 445 376 \$1 50;
#X msg 517 513 \$1 50;
#X obj 216 178 loadbang;
#X obj 308 173 delwrite~ \$0-comp 100;
#X obj 285 300 delread~ \$0-comp;
#X connect 0 0 1 0;
#X connect 0 0 29 0;
#X connect 1 0 2 0;
#X connect 2 0 3 0;
#X connect 3 0 6 0;
#X connect 3 1 8 0;
#X connect 6 0 7 0;
#X connect 7 0 26 0;
#X connect 8 0 9 0;
#X connect 9 0 16 0;
#X connect 10 0 13 1;
#X connect 13 0 23 0;
#X connect 14 0 30 0;
#X connect 15 0 14 0;
#X connect 16 0 17 0;
#X connect 17 0 18 0;
#X connect 18 0 19 0;
#X connect 19 0 20 0;
#X connect 20 0 27 0;
#X connect 24 0 9 1;
#X connect 25 0 9 2;
#X connect 26 0 10 0;
#X connect 27 0 10 0;
#X connect 28 0 15 0;
#X connect 30 0 13 0;
