#N canvas 0 25 1440 792 12;
#X floatatom 114 102 5 0 100 0 - - - 0;
#X text 114 49 x val;
#X floatatom 219 104 5 1 100 0 - - - 0;
#X floatatom 333 105 5 0 100 0 - - - 0;
#X floatatom 449 103 5 0 100 0 - - - 0;
#X floatatom 555 103 5 0 100 0 - - - 0;
#X floatatom 659 103 5 0 100 0 - - - 0;
#X floatatom 867 104 5 1 100 0 - - - 0;
#X text 216 52 y val;
#X text 326 52 z val;
#X text 443 51 x vel;
#X text 551 52 y vel;
#X text 655 53 z vel;
#X text 859 44 body val;
#X text 3175 2762 ahhhhhhh;
#X obj 118 164 s xval;
#X obj 221 165 s yval;
#X obj 332 168 s zval;
#X obj 866 161 s body;
#X obj 443 168 s xvel;
#X obj 116 131 / 100;
#X obj 220 133 / 100;
#X obj 333 134 / 100;
#X obj 442 134 / 100;
#X obj 550 135 / 100;
#X obj 658 135 / 100;
#X obj 155 585 sound1;
#X obj 558 591 r yval;
#X obj 485 632 threshSwitch;
#X obj 463 570 sound2;
#X obj 480 525 r yval;
#X obj 418 525 r xval;
#X obj 131 539 r xval;
#X obj 204 539 r yval;
#X obj 826 574 sound3;
#X obj 794 533 r xval;
#X obj 866 532 r yval;
#X obj 278 494 vsl 19 162 0 1 0 0 empty empty empty 0 -9 0 12 #fcfcfc #000000 #000000 0 1;
#X obj 261 682 *~;
#X obj 623 674 *~;
#X obj 948 679 *~;
#X obj 944 486 vsl 19 162 0 1 0 0 empty empty empty 0 -9 0 12 #fcfcfc #000000 #000000 0 1;
#X obj 631 485 vsl 19 162 0 1 0 0 empty empty empty 0 -9 0 12 #fcfcfc #000000 #000000 0 1;
#X text 260 473 sound1;
#X text 616 461 sound2;
#X text 930 459 sound3;
#X obj 295 776 2minSinFade;
#X obj 1190 562 sound4;
#X obj 1165 524 r yval;
#X obj 1223 526 r zval;
#X obj 1279 561 r xval;
#X obj 1375 489 vsl 19 162 0 1 0 0 empty empty empty 0 -9 0 12 #fcfcfc #000000 #000000 0 1;
#X obj 1371 682 *~;
#X obj 1246 100 r zval;
#X obj 1246 174 *;
#X text 1367 463 sound4;
#X obj 1246 151 scale;
#X msg 1299 127 0 1 18 100;
#X obj 1246 127 invert;
#X obj 1299 102 loadbang;
#X text 1320 159 scales zval for LPF control;
#X obj 624 747 lpf4;
#X obj 1246 198 s fc;
#X obj 645 715 r fc;
#X obj 290 838 lpf4;
#X obj 316 809 r fc;
#X obj 866 132 / 100;
#X obj 1610 564 sound5;
#X obj 1576 523 r xvel;
#X obj 1608 496 r yvel;
#X obj 1645 525 r zvel;
#X obj 1748 480 vsl 19 162 0 1 0 0 empty empty empty 0 -9 0 12 #fcfcfc #000000 #000000 0 1;
#X text 1733 458 sound5;
#X obj 1717 677 *~;
#X obj 659 167 s zvel;
#X obj 550 168 s yvel;
#X obj 1594 627 threshSwitchNoVolume;
#X obj 1673 575 r xval;
#X obj 1672 597 invert;
#X msg 303 513 0.2;
#X obj 303 491 loadbang;
#X obj 654 483 loadbang;
#X msg 654 507 0.55;
#X msg 967 508 0.15;
#X obj 967 484 loadbang;
#X obj 1399 487 loadbang;
#X obj 1771 478 loadbang;
#X msg 1771 502 0.3;
#X msg 1399 511 0.8;
#X obj 301 616 sigDetect;
#X obj 301 641 tgl 19 0 empty empty empty 0 -10 0 12 #fcfcfc #000000 #000000 0 1;
#X obj 349 641 tgl 19 0 empty empty empty 0 -10 0 12 #fcfcfc #000000 #000000 0 1;
#X obj 655 605 sigDetect;
#X obj 655 630 tgl 19 0 empty empty empty 0 -10 0 12 #fcfcfc #000000 #000000 0 1;
#X obj 703 630 tgl 19 0 empty empty empty 0 -10 0 12 #fcfcfc #000000 #000000 0 1;
#X obj 968 606 sigDetect;
#X obj 968 631 tgl 19 0 empty empty empty 0 -10 0 12 #fcfcfc #000000 #000000 0 1;
#X obj 1016 631 tgl 19 0 empty empty empty 0 -10 0 12 #fcfcfc #000000 #000000 0 1;
#X obj 1401 611 sigDetect;
#X obj 1401 636 tgl 19 0 empty empty empty 0 -10 0 12 #fcfcfc #000000 #000000 0 1;
#X obj 1449 636 tgl 19 0 empty empty empty 0 -10 0 12 #fcfcfc #000000 #000000 0 1;
#X obj 1774 602 sigDetect;
#X obj 1774 627 tgl 19 0 empty empty empty 0 -10 0 12 #fcfcfc #000000 #000000 0 1;
#X obj 1822 627 tgl 19 0 empty empty empty 0 -10 0 12 #fcfcfc #000000 #000000 0 1;
#X obj 2075 564 sound6;
#X obj 2073 531 r body;
#X obj 2136 479 vsl 19 162 0 1 0 0 empty empty empty 0 -9 0 12 #fcfcfc #000000 #000000 0 1;
#X text 2124 457 sound6;
#X obj 2161 478 loadbang;
#X msg 2161 504;
#X obj 2165 601 sigDetect;
#X obj 2165 626 tgl 19 0 empty empty empty 0 -10 0 12 #fcfcfc #000000 #000000 0 1;
#X obj 2213 626 tgl 19 0 empty empty empty 0 -10 0 12 #fcfcfc #000000 #000000 0 1;
#X obj 2116 653 *~;
#X obj 114 75 inlet;
#X obj 215 78 inlet;
#X obj 339 76 inlet;
#X obj 440 79 inlet;
#X obj 558 75 inlet;
#X obj 659 78 inlet;
#X obj 866 72 inlet;
#X obj 1910 1239 outlet~;
#X obj 2092 1219 outlet~;
#X obj 2195 1193 outlet~;
#X obj 2289 1201 outlet~;
#X obj 2375 1189 outlet~;
#X obj 2443 1176 outlet~;
#X obj 2517 1154 outlet~;
#X obj 2588 1155 outlet~;
#X obj 2348 701 toplevel_hackathon2024;
#X floatatom 2563 600 5 0 0 0 - - - 0;
#X obj 2605 485 loadbang;
#X obj 2548 638 / 100;
#X obj 2727 687 fullbodysound1;
#X obj 2730 539 r body;
#X floatatom 2804 559 5 0 0 0 - - - 0;
#X obj 2808 453 loadbang;
#X obj 2904 551 r body;
#X floatatom 2982 557 5 0 0 0 - - - 0;
#X obj 2982 465 loadbang;
#X obj 2899 699 fullbodysound2;
#X obj 339 849 *~;
#X floatatom 384 814 5 0 0 0 - - - 0;
#X obj 384 837 / 50;
#X msg 421 786 50;
#X obj 424 752 loadbang;
#X obj 639 776 *~;
#X floatatom 694 752 5 0 0 0 - - - 0;
#X obj 694 775 / 50;
#X msg 731 724 50;
#X obj 734 690 loadbang;
#X obj 1390 761 *~;
#X floatatom 1436 720 5 0 0 0 - - - 0;
#X obj 1436 743 / 50;
#X msg 1473 692 50;
#X obj 1476 658 loadbang;
#X obj 1732 719 *~;
#X floatatom 1829 692 5 0 0 0 - - - 0;
#X obj 1829 715 / 50;
#X msg 1866 664 50;
#X obj 1869 630 loadbang;
#X obj 2106 679 *~;
#X floatatom 1985 566 5 0 0 0 - - - 0;
#X obj 1985 589 / 50;
#X msg 2022 538 50, f 4;
#X obj 2025 504 loadbang;
#X obj 2334 425 * 100;
#X obj 2450 428 * 100;
#X obj 2499 439 * 100;
#X obj 2734 594 * 100;
#X obj 2904 611 * 100;
#X obj 659 821 randPan, f 11;
#X obj 372 886 randPan, f 11;
#X obj 1403 783 randPan, f 11;
#X obj 1739 765 randPan, f 11;
#X obj 2107 711 randPan, f 11;
#X obj 1208 613 threshSwitch;
#X obj 651 -32 loadbang;
#X msg 177 32 20;
#X msg 284 26 20;
#X msg 388 27 20;
#X msg 812 18 100;
#X obj 747 -10 pipe 100;
#X obj 2341 365 r xval;
#X obj 2460 323 r yval;
#X obj 2525 327 r zval;
#X obj 2339 485 pipe;
#X obj 2315 534 -;
#X obj 2432 381 + 100;
#X obj 2451 482 pipe;
#X obj 2417 544 -;
#X msg 2984 527 1.75;
#X msg 2810 515 0.25;
#X floatatom 2566 465 5 0 0 0 - - - 0;
#X floatatom 2271 632 5 0 0 0 - - - 0;
#X obj 2335 598 / 30;
#X obj 2411 591 / 30;
#X msg 2596 518 500;
#X connect 0 0 20 0;
#X connect 2 0 21 0;
#X connect 3 0 22 0;
#X connect 4 0 23 0;
#X connect 5 0 24 0;
#X connect 6 0 25 0;
#X connect 7 0 66 0;
#X connect 20 0 15 0;
#X connect 21 0 16 0;
#X connect 22 0 17 0;
#X connect 23 0 19 0;
#X connect 24 0 75 0;
#X connect 25 0 74 0;
#X connect 26 0 38 0;
#X connect 27 0 28 1;
#X connect 28 0 39 0;
#X connect 29 0 28 0;
#X connect 30 0 29 1;
#X connect 31 0 29 0;
#X connect 32 0 26 0;
#X connect 33 0 26 1;
#X connect 34 0 40 0;
#X connect 35 0 34 0;
#X connect 36 0 34 1;
#X connect 37 0 38 1;
#X connect 38 0 46 0;
#X connect 38 0 89 0;
#X connect 39 0 61 0;
#X connect 40 0 46 1;
#X connect 40 0 95 0;
#X connect 41 0 40 1;
#X connect 42 0 39 1;
#X connect 46 0 64 0;
#X connect 47 0 176 0;
#X connect 48 0 47 0;
#X connect 49 0 47 1;
#X connect 50 0 176 1;
#X connect 51 0 52 1;
#X connect 52 0 98 0;
#X connect 52 0 151 0;
#X connect 53 0 58 0;
#X connect 54 0 62 0;
#X connect 56 0 54 0;
#X connect 56 0 54 1;
#X connect 57 0 56 1;
#X connect 58 0 56 0;
#X connect 59 0 57 0;
#X connect 61 0 92 0;
#X connect 61 0 146 0;
#X connect 63 0 61 1;
#X connect 64 0 141 0;
#X connect 65 0 64 1;
#X connect 66 0 18 0;
#X connect 67 0 76 0;
#X connect 68 0 67 0;
#X connect 69 0 67 1;
#X connect 70 0 67 2;
#X connect 71 0 73 1;
#X connect 73 0 101 0;
#X connect 73 0 156 0;
#X connect 76 0 73 0;
#X connect 77 0 78 0;
#X connect 78 0 76 1;
#X connect 79 0 37 0;
#X connect 80 0 79 0;
#X connect 81 0 82 0;
#X connect 82 0 42 0;
#X connect 83 0 41 0;
#X connect 84 0 83 0;
#X connect 85 0 88 0;
#X connect 86 0 87 0;
#X connect 87 0 71 0;
#X connect 88 0 51 0;
#X connect 89 0 90 0;
#X connect 89 1 91 0;
#X connect 92 0 93 0;
#X connect 92 1 94 0;
#X connect 95 0 96 0;
#X connect 95 1 97 0;
#X connect 98 0 99 0;
#X connect 98 1 100 0;
#X connect 101 0 102 0;
#X connect 101 1 103 0;
#X connect 104 0 113 0;
#X connect 105 0 104 0;
#X connect 106 0 113 1;
#X connect 108 0 109 0;
#X connect 109 0 106 0;
#X connect 110 0 111 0;
#X connect 110 1 112 0;
#X connect 113 0 110 0;
#X connect 113 0 161 0;
#X connect 114 0 0 0;
#X connect 115 0 2 0;
#X connect 116 0 3 0;
#X connect 117 0 4 0;
#X connect 118 0 5 0;
#X connect 119 0 6 0;
#X connect 120 0 7 0;
#X connect 129 0 121 0;
#X connect 129 1 122 0;
#X connect 129 2 123 0;
#X connect 129 3 124 0;
#X connect 129 4 125 0;
#X connect 129 5 126 0;
#X connect 129 6 127 0;
#X connect 129 7 128 0;
#X connect 130 0 132 0;
#X connect 131 0 197 0;
#X connect 132 0 129 4;
#X connect 133 0 121 0;
#X connect 133 1 122 0;
#X connect 133 2 123 0;
#X connect 133 3 124 0;
#X connect 133 4 125 0;
#X connect 133 5 126 0;
#X connect 133 6 127 0;
#X connect 133 7 128 0;
#X connect 134 0 169 0;
#X connect 135 0 133 1;
#X connect 136 0 192 0;
#X connect 137 0 170 0;
#X connect 138 0 140 1;
#X connect 139 0 191 0;
#X connect 140 0 121 0;
#X connect 140 1 122 0;
#X connect 140 2 123 0;
#X connect 140 3 124 0;
#X connect 140 4 125 0;
#X connect 140 5 126 0;
#X connect 140 6 127 0;
#X connect 140 7 128 0;
#X connect 141 0 172 0;
#X connect 142 0 143 0;
#X connect 143 0 141 1;
#X connect 144 0 142 0;
#X connect 145 0 144 0;
#X connect 146 0 171 0;
#X connect 147 0 148 0;
#X connect 148 0 146 1;
#X connect 149 0 147 0;
#X connect 150 0 149 0;
#X connect 151 0 173 0;
#X connect 152 0 153 0;
#X connect 153 0 151 1;
#X connect 154 0 152 0;
#X connect 155 0 154 0;
#X connect 156 0 174 0;
#X connect 157 0 158 0;
#X connect 158 0 156 1;
#X connect 159 0 157 0;
#X connect 160 0 159 0;
#X connect 161 0 175 0;
#X connect 162 0 163 0;
#X connect 163 0 161 1;
#X connect 164 0 162 0;
#X connect 165 0 164 0;
#X connect 166 0 186 0;
#X connect 166 0 187 0;
#X connect 167 0 190 0;
#X connect 168 0 129 2;
#X connect 168 0 188 1;
#X connect 169 0 133 0;
#X connect 170 0 140 0;
#X connect 171 0 121 0;
#X connect 171 1 122 0;
#X connect 171 2 123 0;
#X connect 171 3 124 0;
#X connect 171 4 125 0;
#X connect 171 5 126 0;
#X connect 171 6 127 0;
#X connect 171 7 128 0;
#X connect 172 0 121 0;
#X connect 172 1 122 0;
#X connect 172 2 123 0;
#X connect 172 3 124 0;
#X connect 172 4 125 0;
#X connect 172 5 126 0;
#X connect 172 6 127 0;
#X connect 172 7 128 0;
#X connect 173 0 121 0;
#X connect 173 1 122 0;
#X connect 173 2 123 0;
#X connect 173 3 124 0;
#X connect 173 4 125 0;
#X connect 173 5 126 0;
#X connect 173 6 127 0;
#X connect 173 7 128 0;
#X connect 174 0 121 0;
#X connect 174 1 122 0;
#X connect 174 2 123 0;
#X connect 174 3 124 0;
#X connect 174 4 125 0;
#X connect 174 5 126 0;
#X connect 174 6 127 0;
#X connect 174 7 128 0;
#X connect 175 0 121 0;
#X connect 175 1 122 0;
#X connect 175 2 123 0;
#X connect 175 3 124 0;
#X connect 175 4 125 0;
#X connect 175 5 126 0;
#X connect 175 6 127 0;
#X connect 175 7 128 0;
#X connect 176 0 52 0;
#X connect 177 0 180 0;
#X connect 177 0 179 0;
#X connect 177 0 178 0;
#X connect 177 0 182 0;
#X connect 178 0 0 0;
#X connect 179 0 2 0;
#X connect 180 0 3 0;
#X connect 181 0 7 0;
#X connect 182 0 181 0;
#X connect 183 0 166 0;
#X connect 184 0 167 0;
#X connect 185 0 168 0;
#X connect 185 0 188 0;
#X connect 186 0 187 1;
#X connect 187 0 194 0;
#X connect 187 0 195 0;
#X connect 188 0 186 1;
#X connect 188 0 189 1;
#X connect 188 0 193 0;
#X connect 189 0 190 1;
#X connect 190 0 196 0;
#X connect 191 0 138 0;
#X connect 192 0 135 0;
#X connect 195 0 129 0;
#X connect 196 0 129 1;
#X connect 197 0 130 0;
