#N canvas 0 25 720 847 12;
#X obj 146 180 loadbang;
#X msg 146 217 new myserial /dev/ttyS4 9600 newline floats;
#X obj 146 241 s bela_setSerial;
#X obj 195 367 r bela_serial;
#X obj 195 391 route myserial;
#X obj 195 415 unpack f f f;
#X obj 194 476 pack f f f;
#X obj 194 500 print floats;
#X connect 0 0 1 0;
#X connect 1 0 2 0;
#X connect 3 0 4 0;
#X connect 4 0 5 0;
#X connect 5 0 6 0;
#X connect 5 1 6 1;
#X connect 5 2 6 2;
#X connect 6 0 7 0;
