#N canvas 295 320 450 300 12;
#X obj 101 59 inlet~;
#X obj 101 102 env~;
#X obj 97 190 bng 19 250 50 0 empty empty empty 0 -10 0 12 #fcfcfc #000000 #000000;
#X obj 251 190 bng 19 250 50 0 empty empty empty 0 -10 0 12 #fcfcfc #000000 #000000;
#X obj 144 236 tgl 19 0 empty empty empty 0 -10 0 12 #fcfcfc #000000 #000000 0 1;
#X obj 305 192 bng 19 250 50 0 empty empty empty 0 -10 0 12 #fcfcfc #000000 #000000;
#X obj 459 192 bng 19 250 50 0 empty empty empty 0 -10 0 12 #fcfcfc #000000 #000000;
#X obj 352 238 tgl 19 0 empty empty empty 0 -10 0 12 #fcfcfc #000000 #000000 0 1;
#X obj 144 265 outlet;
#X obj 352 264 outlet;
#X obj 99 143 threshold~ 40 100 40 100;
#X obj 307 145 threshold~ 100 100 100 100;
#X connect 0 0 1 0;
#X connect 1 0 10 0;
#X connect 1 0 11 0;
#X connect 2 0 4 0;
#X connect 3 0 4 0;
#X connect 4 0 8 0;
#X connect 5 0 7 0;
#X connect 6 0 7 0;
#X connect 7 0 9 0;
#X connect 10 0 2 0;
#X connect 10 1 3 0;
#X connect 11 0 5 0;
#X connect 11 1 6 0;
