#N canvas 530 159 856 614 12;
#X obj 121 456 osc~ 250;
#X obj 110 291 osc~ 250;
#X obj 153 348 *~;
#X obj 132 422 +~ 250;
#X floatatom 225 261 5 0 0 0 - - - 0;
#X obj 127 50 inlet;
#X obj 124 177 + 100;
#X floatatom 137 227 5 0 0 0 - - - 0;
#X floatatom 78 225 5 0 0 0 - - - 0;
#X floatatom 204 156 5 0 0 0 - - - 0;
#X obj 124 153 * 350;
#X obj 315 58 inlet;
#X floatatom 321 240 5 0 0 0 - - - 0;
#X text 314 32 yval;
#X text 127 26 xval;
#X obj 406 582 outlet~;
#X obj 312 161 * 300;
#X obj 312 185 + 200;
#X obj 626 352 *~;
#X floatatom 698 265 5 0 0 0 - - - 0;
#X obj 597 181 + 100;
#X floatatom 610 231 5 0 0 0 - - - 0;
#X floatatom 551 229 5 0 0 0 - - - 0;
#X obj 597 157 * 350;
#X floatatom 794 244 5 0 0 0 - - - 0;
#X obj 785 165 * 300;
#X obj 785 189 + 200;
#X obj 583 295 osc~ 130;
#X obj 594 460 osc~ 130;
#X obj 605 426 +~ 130;
#X connect 0 0 15 0;
#X connect 1 0 2 0;
#X connect 2 0 3 0;
#X connect 3 0 0 0;
#X connect 4 0 2 1;
#X connect 5 0 9 0;
#X connect 5 0 10 0;
#X connect 5 0 23 0;
#X connect 6 0 1 0;
#X connect 6 0 7 0;
#X connect 8 0 1 0;
#X connect 10 0 6 0;
#X connect 11 0 16 0;
#X connect 11 0 25 0;
#X connect 16 0 17 0;
#X connect 17 0 2 1;
#X connect 17 0 12 0;
#X connect 18 0 29 0;
#X connect 19 0 18 1;
#X connect 20 0 21 0;
#X connect 20 0 27 0;
#X connect 22 0 27 0;
#X connect 23 0 20 0;
#X connect 25 0 26 0;
#X connect 26 0 18 1;
#X connect 26 0 24 0;
#X connect 27 0 18 0;
#X connect 28 0 15 0;
#X connect 29 0 28 0;
