#N canvas 0 25 1440 847 12;
#X obj 226 391 scale;
#X obj 760 422 scale;
#X text 803 424 scale values to change second oscillator;
#X obj 760 458 phasor~;
#X obj 224 447 phasor~;
#X msg 253 353 0 1 70 78.4;
#X obj 250 322 loadbang;
#X obj 992 29 osc~ 0.08;
#X obj 992 54 *~ 0.25;
#X obj 992 78 +~ 0.5;
#X obj 224 474 expr~ $v1 > $v2;
#X obj 760 485 expr~ $v1 > $v2;
#X text 1046 51 creates wave to compare square wave to for pwm, f 15;
#X msg 790 384 0 1 70 35;
#X obj 786 347 loadbang;
#X obj 1137 428 scale;
#X obj 1137 464 phasor~;
#X obj 1137 491 expr~ $v1 > $v2;
#X obj 1163 353 loadbang;
#X msg 1167 390 0 1 87.5 98;
#X obj 1352 428 scale;
#X obj 1352 464 phasor~;
#X obj 1352 491 expr~ $v1 > $v2;
#X obj 1378 353 loadbang;
#X msg 1382 390 0 1 87.5 43.75;
#X obj 1593 427 scale;
#X obj 1593 463 phasor~;
#X obj 1593 490 expr~ $v1 > $v2;
#X obj 1619 352 loadbang;
#X obj 1823 428 scale;
#X obj 1823 464 phasor~;
#X obj 1823 491 expr~ $v1 > $v2;
#X obj 1849 353 loadbang;
#X msg 1623 389 0 1 105 117.6;
#X msg 1853 390 0 1 105 52.5;
#X floatatom 226 226 5 0 0 0 - - - 0;
#X obj 175 134 expr 0.01 + pow($f1 \, 4);
#X obj 151 61 inlet;
#X text 145 38 bodyval;
#X obj 985 666 +~;
#X obj 985 690 outlet~;
#X floatatom 248 84 5 0 0 0 - - - 0;
#X connect 0 0 4 0;
#X connect 1 0 3 0;
#X connect 3 0 11 0;
#X connect 4 0 10 0;
#X connect 5 0 0 1;
#X connect 6 0 5 0;
#X connect 7 0 8 0;
#X connect 8 0 9 0;
#X connect 9 0 10 1;
#X connect 9 0 11 1;
#X connect 9 0 17 1;
#X connect 9 0 22 1;
#X connect 9 0 27 1;
#X connect 9 0 31 1;
#X connect 10 0 39 0;
#X connect 11 0 39 0;
#X connect 13 0 1 1;
#X connect 14 0 13 0;
#X connect 15 0 16 0;
#X connect 16 0 17 0;
#X connect 17 0 39 0;
#X connect 18 0 19 0;
#X connect 19 0 15 1;
#X connect 20 0 21 0;
#X connect 21 0 22 0;
#X connect 22 0 39 0;
#X connect 23 0 24 0;
#X connect 24 0 20 1;
#X connect 25 0 26 0;
#X connect 26 0 27 0;
#X connect 27 0 39 0;
#X connect 28 0 33 0;
#X connect 29 0 30 0;
#X connect 30 0 31 0;
#X connect 31 0 39 0;
#X connect 32 0 34 0;
#X connect 33 0 25 1;
#X connect 34 0 29 1;
#X connect 35 0 0 0;
#X connect 35 0 1 0;
#X connect 35 0 15 0;
#X connect 35 0 20 0;
#X connect 35 0 25 0;
#X connect 35 0 29 0;
#X connect 36 0 35 0;
#X connect 37 0 41 0;
#X connect 37 0 36 0;
#X connect 39 0 40 0;
#X connect 41 0 36 0;
