#N canvas 561 168 879 642 12;
#X obj 177 89 threshold~ 0.2 100 0.2 100;
#X obj 348 121 tgl 19 0 empty empty empty 0 -10 0 12 #fcfcfc #000000 #000000 0 1;
#X floatatom 291 156 5 0 0 0 - - - 0;
#X obj 350 205 bng 19 250 50 0 empty empty empty 0 -10 0 12 #fcfcfc #000000 #000000;
#X floatatom 430 346 5 0 0 0 - - - 0;
#X obj 428 299 line;
#X obj 499 203 bng 19 250 50 0 empty empty empty 0 -10 0 12 #fcfcfc #000000 #000000;
#X obj 351 161 sel 1 0;
#X obj 483 401 *;
#X obj 410 435 *~;
#X floatatom 540 425 5 0 0 0 - - - 0;
#X obj 542 329 t b f;
#X obj 538 24 inlet;
#X obj 409 499 outlet~;
#X obj 308 375 inlet~;
#X msg 360 258 1 2000;
#X msg 462 257 0 1500;
#X connect 0 1 1 0;
#X connect 1 0 2 0;
#X connect 1 0 7 0;
#X connect 3 0 15 0;
#X connect 4 0 8 0;
#X connect 5 0 4 0;
#X connect 6 0 16 0;
#X connect 7 0 3 0;
#X connect 7 1 6 0;
#X connect 8 0 9 1;
#X connect 8 0 10 0;
#X connect 9 0 13 0;
#X connect 11 0 4 0;
#X connect 11 1 8 1;
#X connect 12 0 0 0;
#X connect 12 0 11 0;
#X connect 14 0 9 0;
#X connect 15 0 5 0;
#X connect 16 0 5 0;
