#N canvas 0 25 1440 847 12;
#X text 190 104 upper level patch;
#X obj 478 189 inlet;
#X floatatom 431 191 5 0 0 0 - - - 0;
#X obj 481 259 *;
#X obj 624 189 inlet;
#X floatatom 577 191 5 0 0 0 - - - 0;
#X obj 600 259 *;
#X obj 737 183 inlet;
#X floatatom 690 185 5 0 0 0 - - - 0;
#X obj 713 253 *;
#X obj 1375 202 inlet;
#X floatatom 1328 204 5 0 0 0 - - - 0;
#X obj 1351 272 *;
#X text 443 113 xpos;
#X text 593 113 ypos;
#X text 708 112 zpos;
#X text 1359 120 zbody;
#X obj 805 26 loadbang;
#X obj 436 221 / 100;
#X obj 573 226 / 100;
#X obj 692 218 / 100;
#X obj 1327 235 / 100;
#X msg 1355 159 100;
#X text 348 226 scaling;
#X obj 487 504 rev1~;
#X obj 583 496 rev1~;
#X obj 681 510 rev1~;
#X obj 774 502 rev1~;
#X obj 885 505 rev1~;
#X obj 983 508 rev1~;
#X obj 1074 507 rev1~;
#X obj 1161 506 rev1~;
#X floatatom 359 445 5 0 99 0 - - - 0;
#X msg 319 418 60;
#X obj 312 324 loadbang;
#X obj 489 383 hip~;
#X obj 595 388 hip~;
#X obj 685 389 hip~;
#X obj 783 396 hip~;
#X text 205 447 adding reverb;
#X text 174 367 high passing the 4" speakers so they dont distort, f 23;
#X floatatom 428 366 5 0 0 0 - - - 0;
#X msg 378 355 100;
#X floatatom 335 540 5 0 0 0 - - - 0;
#X floatatom 411 528 5 0 0 0 - - - 0;
#X text 230 507 reduction factor, f 9;
#X text 389 482 threshold;
#X msg 312 505 10;
#X text 1197 326 note: 1st 4 outputs are top speakers which are 4" drivers \, 2nd 4 are bottoms which are 5", f 27;
#X obj 493 738 *~;
#X obj 611 739 *~;
#X obj 722 740 *~;
#X obj 810 739 *~;
#X obj 910 741 *~;
#X obj 995 736 *~;
#X obj 1094 743 *~;
#X obj 1196 737 *~;
#X obj 205 524 vsl 19 162 0 100 0 0 empty empty empty 0 -9 0 12 #fcfcfc #000000 #000000 0 1;
#X obj 312 655 / 20;
#X msg 137 465 20;
#X text 98 608 master volume (goes from 0-5), f 12;
#X floatatom 365 674 5 0 0 0 - - - 0;
#X obj 484 788 outlet~;
#X obj 599 787 outlet~;
#X obj 721 786 outlet~;
#X obj 816 784 outlet~;
#X obj 912 784 outlet~;
#X obj 993 790 outlet~;
#X obj 1093 788 outlet~;
#X obj 1190 786 outlet~;
#X msg 376 498 60;
#X obj 489 443 hip~;
#X obj 595 448 hip~;
#X obj 685 449 hip~;
#X obj 783 456 hip~;
#X obj 870 405 hip~;
#X obj 969 403 hip~;
#X obj 1059 404 hip~;
#X obj 1157 411 hip~;
#X floatatom 713 289 5 0 0 0 - - - 0;
#X floatatom 600 292 5 0 0 0 - - - 0;
#X floatatom 483 292 5 0 0 0 - - - 0;
#X floatatom 1279 300 5 0 0 0 - - - 0;
#X obj 486 160 bng 19 250 50 0 empty empty empty 0 -10 0 12 #fcfcfc #000000 #000000;
#X obj 612 168 bng 19 250 50 0 empty empty empty 0 -10 0 12 #fcfcfc #000000 #000000;
#X obj 725 162 bng 19 250 50 0 empty empty empty 0 -10 0 12 #fcfcfc #000000 #000000;
#X obj 1362 180 bng 19 250 50 0 empty empty empty 0 -10 0 12 #fcfcfc #000000 #000000;
#X obj 483 331 mainWindow_noVel, f 97;
#X msg 437 146 800;
#X msg 604 146 800;
#X msg 717 140 800;
#X obj 424 627 basicLimiter;
#X obj 535 627 basicLimiter;
#X obj 654 626 basicLimiter;
#X obj 769 627 basicLimiter;
#X obj 882 628 basicLimiter;
#X obj 997 628 basicLimiter;
#X obj 1116 630 basicLimiter;
#X obj 1236 631 basicLimiter;
#X connect 1 0 3 1;
#X connect 1 0 83 0;
#X connect 2 0 18 0;
#X connect 3 0 81 0;
#X connect 4 0 6 1;
#X connect 4 0 84 0;
#X connect 5 0 19 0;
#X connect 6 0 80 0;
#X connect 7 0 9 1;
#X connect 7 0 85 0;
#X connect 8 0 20 0;
#X connect 9 0 79 0;
#X connect 10 0 12 1;
#X connect 10 0 86 0;
#X connect 11 0 21 0;
#X connect 12 0 82 0;
#X connect 17 0 88 0;
#X connect 17 0 89 0;
#X connect 17 0 90 0;
#X connect 17 0 22 0;
#X connect 18 0 3 0;
#X connect 19 0 6 0;
#X connect 20 0 9 0;
#X connect 21 0 12 0;
#X connect 22 0 11 0;
#X connect 24 0 91 0;
#X connect 25 0 92 0;
#X connect 26 0 93 0;
#X connect 27 0 94 0;
#X connect 28 0 95 0;
#X connect 29 0 96 0;
#X connect 30 0 97 0;
#X connect 31 0 98 0;
#X connect 32 0 24 1;
#X connect 32 0 25 1;
#X connect 32 0 26 1;
#X connect 32 0 27 1;
#X connect 32 0 28 1;
#X connect 32 0 29 1;
#X connect 32 0 30 1;
#X connect 32 0 31 1;
#X connect 33 0 32 0;
#X connect 34 0 33 0;
#X connect 34 0 42 0;
#X connect 34 0 47 0;
#X connect 34 0 70 0;
#X connect 34 0 59 0;
#X connect 35 0 71 0;
#X connect 36 0 72 0;
#X connect 37 0 73 0;
#X connect 38 0 74 0;
#X connect 41 0 35 1;
#X connect 41 0 36 1;
#X connect 41 0 37 1;
#X connect 41 0 38 1;
#X connect 41 0 75 1;
#X connect 41 0 76 1;
#X connect 41 0 77 1;
#X connect 41 0 78 1;
#X connect 41 0 71 1;
#X connect 41 0 72 1;
#X connect 41 0 73 1;
#X connect 41 0 74 1;
#X connect 42 0 41 0;
#X connect 43 0 91 1;
#X connect 43 0 92 1;
#X connect 43 0 93 1;
#X connect 43 0 94 1;
#X connect 43 0 95 1;
#X connect 43 0 96 1;
#X connect 43 0 97 1;
#X connect 43 0 98 1;
#X connect 44 0 91 2;
#X connect 44 0 92 2;
#X connect 44 0 93 2;
#X connect 44 0 94 2;
#X connect 44 0 95 2;
#X connect 44 0 96 2;
#X connect 44 0 97 2;
#X connect 44 0 98 2;
#X connect 47 0 43 0;
#X connect 49 0 62 0;
#X connect 50 0 63 0;
#X connect 51 0 64 0;
#X connect 52 0 65 0;
#X connect 53 0 66 0;
#X connect 54 0 67 0;
#X connect 55 0 68 0;
#X connect 56 0 69 0;
#X connect 57 0 58 0;
#X connect 58 0 61 0;
#X connect 59 0 57 0;
#X connect 61 0 49 1;
#X connect 61 0 50 1;
#X connect 61 0 51 1;
#X connect 61 0 52 1;
#X connect 61 0 53 1;
#X connect 61 0 54 1;
#X connect 61 0 55 1;
#X connect 61 0 56 1;
#X connect 70 0 44 0;
#X connect 71 0 24 0;
#X connect 72 0 25 0;
#X connect 73 0 26 0;
#X connect 74 0 27 0;
#X connect 75 0 28 0;
#X connect 76 0 29 0;
#X connect 77 0 30 0;
#X connect 78 0 31 0;
#X connect 79 0 87 2;
#X connect 80 0 87 1;
#X connect 81 0 87 0;
#X connect 82 0 87 6;
#X connect 83 0 2 0;
#X connect 84 0 5 0;
#X connect 85 0 8 0;
#X connect 86 0 11 0;
#X connect 87 0 35 0;
#X connect 87 1 36 0;
#X connect 87 2 37 0;
#X connect 87 3 38 0;
#X connect 87 4 75 0;
#X connect 87 5 76 0;
#X connect 87 6 77 0;
#X connect 87 7 78 0;
#X connect 88 0 2 0;
#X connect 89 0 5 0;
#X connect 90 0 8 0;
#X connect 91 0 49 0;
#X connect 92 0 50 0;
#X connect 93 0 51 0;
#X connect 94 0 52 0;
#X connect 95 0 53 0;
#X connect 96 0 54 0;
#X connect 97 0 55 0;
#X connect 98 0 56 0;
