#N canvas 576 271 511 369 12;
#X obj 97 95 inlet~;
#X obj 392 99 inlet~;
#X obj 129 247 *~;
#X obj 410 256 *~;
#X obj 261 325 outlet~;
#X obj 260 289 +~;
#X obj 156 169 *~ 0.5;
#X obj 464 170 *~ 0.5;
#X obj 242 44 loadbang;
#X msg 239 78 0;
#X msg 473 78 1;
#X obj 352 27 bng 19 250 50 0 empty empty empty 0 -10 0 12 #fcfcfc #000000 #000000;
#X obj 160 131 osc~ 0.0483077;
#X obj 463 140 osc~ 0.0483077 0.5;
#X obj 162 199 +~ 1;
#X obj 466 201 +~ 1;
#X connect 0 0 2 0;
#X connect 1 0 3 0;
#X connect 2 0 5 0;
#X connect 3 0 5 1;
#X connect 5 0 4 0;
#X connect 6 0 14 0;
#X connect 7 0 15 0;
#X connect 8 0 9 0;
#X connect 8 0 10 0;
#X connect 9 0 12 1;
#X connect 10 0 13 1;
#X connect 11 0 9 0;
#X connect 11 0 10 0;
#X connect 12 0 6 0;
#X connect 13 0 7 0;
#X connect 14 0 2 1;
#X connect 15 0 3 1;
