#N canvas 0 0 1440 872 12;
#X text 272 50 Body signal 1 8 channel random tone generator;
#X obj 645 81 inlet;
#X text 636 53 between 3 and 50;
#X text 650 33 Z body signal;
#X obj 623 560 osc~;
#X obj 647 686 outlet~;
#X obj 629 492 / 100;
#X obj 628 522 + 200;
#X text 258 132 the output of this is a rate for the note generation on randoom, f 10;
#X floatatom 836 535 24 0 0 0 - - - 0;
#X floatatom 851 479 22 0 0 0 - - - 0;
#X obj 677 273 delay;
#X obj 647 391 random 50000;
#X obj 636 614 *~;
#X floatatom 479 627 15 0 0 0 - - - 0;
#X obj 677 119 * 2;
#X obj 524 428 /;
#X msg 535 354 20;
#X floatatom 706 192 5 0 0 0 - - - 0;
#X obj 654 219 bng 19 250 50 0 empty empty empty 0 -10 0 12 #fcfcfc #000000 #000000;
#X obj 774 126 loadbang;
#X msg 765 180 1000;
#X floatatom 662 170 5 0 0 0 - - - 0;
#X connect 1 0 15 0;
#X connect 1 0 16 1;
#X connect 1 0 17 0;
#X connect 4 0 13 0;
#X connect 6 0 7 0;
#X connect 7 0 4 0;
#X connect 7 0 9 0;
#X connect 11 0 19 0;
#X connect 11 0 12 0;
#X connect 12 0 10 0;
#X connect 12 0 6 0;
#X connect 13 0 5 0;
#X connect 15 0 18 0;
#X connect 15 0 22 0;
#X connect 16 0 14 0;
#X connect 16 0 13 1;
#X connect 17 0 16 0;
#X connect 18 0 11 1;
#X connect 19 0 11 0;
#X connect 20 0 21 0;
#X connect 21 0 18 0;
#X connect 21 0 19 0;
