#N canvas 0 25 1440 793 12;
#X text 223 151 body sound 2;
#X text 182 257 filtered white noise;
#X obj 604 15 inlet;
#X obj 667 164 noise~;
#X obj 686 239 bob~;
#X obj 578 156 /;
#X obj 689 329 *~;
#X obj 677 399 outlet~;
#X msg 746 191 4;
#X floatatom 550 234 5 0 0 0 - - - 0;
#X floatatom 607 331 5 0 0 0 - - - 0;
#X obj 599 279 / 500;
#X msg 676 118 10000;
#X obj 588 69 + 1;
#X obj 404 9 loadbang;
#X floatatom 489 88 5 0 0 0 - - - 0;
#X msg 442 59 100;
#X obj 605 42 pipe 10;
#X connect 2 0 12 0;
#X connect 2 0 17 0;
#X connect 3 0 4 0;
#X connect 4 0 6 1;
#X connect 5 0 4 1;
#X connect 5 0 9 0;
#X connect 5 0 11 0;
#X connect 6 0 7 0;
#X connect 8 0 4 2;
#X connect 11 0 10 0;
#X connect 11 0 6 0;
#X connect 12 0 5 0;
#X connect 13 0 5 1;
#X connect 14 0 16 0;
#X connect 14 0 12 0;
#X connect 14 0 8 0;
#X connect 15 0 13 0;
#X connect 15 0 5 1;
#X connect 16 0 15 0;
#X connect 17 0 13 1;
