#N canvas 0 0 1440 872 12;
#X text 278 150 FULL SYSTEM TEST;
#X obj 502 258 mainWindow, f 44;
#X floatatom 492 163 5 0 0 0 - - - 0;
#X floatatom 547 168 5 0 0 0 - - - 0;
#X floatatom 605 171 5 0 0 0 - - - 0;
#X floatatom 660 170 5 0 0 0 - - - 0;
#X floatatom 710 173 5 0 0 0 - - - 0;
#X floatatom 760 172 5 0 100 0 - - - 0;
#X floatatom 809 174 5 0 0 0 - - - 0;
#X msg 808 136 60;
#X msg 491 125 20;
#X msg 546 130 20;
#X msg 604 133 20;
#X msg 659 132 0;
#X msg 709 135 0;
#X msg 759 134 0;
#X obj 643 73 loadbang;
#X obj 606 414 output~;
#X msg 629 25 30;
#X msg 755 37 30;
#X connect 1 0 17 0;
#X connect 1 1 17 1;
#X connect 2 0 1 0;
#X connect 3 0 1 1;
#X connect 4 0 1 2;
#X connect 5 0 1 3;
#X connect 6 0 1 4;
#X connect 7 0 1 5;
#X connect 8 0 1 6;
#X connect 9 0 8 0;
#X connect 10 0 2 0;
#X connect 11 0 3 0;
#X connect 12 0 4 0;
#X connect 13 0 5 0;
#X connect 14 0 6 0;
#X connect 15 0 7 0;
#X connect 16 0 10 0;
#X connect 16 0 11 0;
#X connect 16 0 12 0;
#X connect 16 0 13 0;
#X connect 16 0 14 0;
#X connect 16 0 15 0;
#X connect 16 0 9 0;
#X connect 18 0 6 0;
#X connect 19 0 5 0;
