#N canvas 0 25 1440 793 12;
#X text 191 51 full body sound 1;
#X obj 746 -20 inlet;
#X obj 607 293 body1;
#X obj 689 308 body1;
#X obj 754 305 body1;
#X obj 815 297 body1;
#X obj 883 294 body1;
#X obj 953 293 body1;
#X obj 1021 297 body1;
#X obj 1097 289 body1;
#X obj 913 405 outlet~;
#X obj 986 415 outlet~;
#X obj 1055 416 outlet~;
#X obj 832 408 outlet~;
#X obj 757 407 outlet~;
#X obj 678 411 outlet~;
#X obj 606 413 outlet~;
#X obj 1129 404 outlet~;
#X obj 603 358 *~;
#X obj 686 367 *~;
#X obj 756 366 *~;
#X obj 838 373 *~;
#X obj 915 367 *~;
#X obj 985 376 *~;
#X obj 1056 375 *~;
#X obj 1123 371 *~;
#X obj 1210 321 inlet;
#X text 876 -13 zbody in;
#X obj 808 141 *;
#X text 1250 315 signal level in;
#X floatatom 618 196 5 0 0 0 - - - 0;
#X obj 905 66 line;
#X obj 820 12 threshold~ 51 100 51 100;
#X obj 1082 8 loadbang;
#X msg 855 42 20 2000;
#X msg 952 42 1 2000;
#X floatatom 850 117 5 0 0 0 - - - 0;
#X floatatom 756 83 5 0 0 0 - - - 0;
#X obj 818 89 bng 19 250 50 0 empty empty empty 0 -10 0 12 #fcfcfc #000000 #000000;
#X msg 678 53 100;
#X obj 650 241 - 1;
#X obj 698 250 - 1;
#X obj 753 248 - 1;
#X obj 813 242 - 1;
#X obj 884 247 - 1;
#X obj 957 239 - 1;
#X obj 1023 244 - 1;
#X obj 1093 246 - 1;
#X connect 1 0 32 0;
#X connect 1 0 37 0;
#X connect 2 0 18 0;
#X connect 3 0 19 0;
#X connect 4 0 20 0;
#X connect 5 0 21 0;
#X connect 6 0 22 0;
#X connect 7 0 23 0;
#X connect 8 0 24 0;
#X connect 9 0 25 0;
#X connect 18 0 16 0;
#X connect 19 0 15 0;
#X connect 20 0 14 0;
#X connect 21 0 13 0;
#X connect 22 0 10 0;
#X connect 23 0 11 0;
#X connect 24 0 12 0;
#X connect 25 0 17 0;
#X connect 26 0 25 1;
#X connect 26 0 24 1;
#X connect 26 0 23 1;
#X connect 26 0 22 1;
#X connect 26 0 21 1;
#X connect 26 0 20 1;
#X connect 26 0 19 1;
#X connect 26 0 18 1;
#X connect 28 0 30 0;
#X connect 28 0 40 0;
#X connect 28 0 41 0;
#X connect 28 0 42 0;
#X connect 28 0 43 0;
#X connect 28 0 44 0;
#X connect 28 0 45 0;
#X connect 28 0 46 0;
#X connect 28 0 47 0;
#X connect 31 0 36 0;
#X connect 31 0 38 0;
#X connect 32 0 34 0;
#X connect 32 1 35 0;
#X connect 33 0 34 0;
#X connect 33 0 39 0;
#X connect 34 0 31 0;
#X connect 35 0 31 0;
#X connect 36 0 28 1;
#X connect 37 0 28 0;
#X connect 38 0 37 0;
#X connect 39 0 37 0;
#X connect 40 0 2 0;
#X connect 41 0 3 0;
#X connect 42 0 4 0;
#X connect 43 0 5 0;
#X connect 44 0 6 0;
#X connect 45 0 7 0;
#X connect 46 0 8 0;
#X connect 47 0 9 0;
