#N canvas 0 28 1440 900 12;
#X obj 453 469 output~;
#X floatatom 476 141 5 0 0 0 - - - 0;
#X obj 503 181 / 100;
#X floatatom 374 227 5 0 0 0 - - - 0;
#X text 459 64 control;
#X obj 446 308 fullbodysound1;
#X obj 637 316 fullbodysound2;
#X obj 703 451 output~;
#X text 505 578 good ratio= 0.085:0.1 full1:full2;
#X obj 663 47 loadbang;
#X floatatom 770 250 5 0 0 0 - - - 0;
#X msg 814 203 0.1;
#X floatatom 554 273 5 0 0 0 - - - 0;
#X msg 598 226 0.085;
#X msg 612 111 10000;
#X msg 553 80 5000;
#X msg 469 92 1000;
#X msg 361 146 400;
#X connect 1 0 2 0;
#X connect 2 0 3 0;
#X connect 2 0 5 0;
#X connect 2 0 6 0;
#X connect 5 0 0 0;
#X connect 5 1 0 1;
#X connect 6 0 7 0;
#X connect 6 7 7 1;
#X connect 9 0 14 0;
#X connect 9 0 11 0;
#X connect 9 0 13 0;
#X connect 10 0 6 1;
#X connect 11 0 10 0;
#X connect 12 0 5 1;
#X connect 13 0 12 0;
#X connect 14 0 1 0;
#X connect 15 0 1 0;
#X connect 16 0 1 0;
#X connect 17 0 1 0;
