#N canvas 0 0 1440 872 12;
#X text 68 35 Tester panning and swoosh component of hackathon;
#X obj 587 301 toplevel_hackathon2024;
#X obj 532 439 output~;
#X msg 694 184 9;
#X obj 297 309 threshold~ 0 50 0 50;
#X msg 426 350 0;
#X msg 324 358 1;
#X floatatom 397 422 5 0 0 0 - - - 0;
#X floatatom 203 262 5 0 0 0 - - - 0;
#X msg 182 209 1;
#X msg 251 223 -1;
#X msg 506 216 -1;
#X obj 629 514 output~;
#X obj 758 552 output~;
#X obj 822 379 output~;
#X msg 600 215 20;
#X floatatom 749 208 5 0 0 0 - - - 0;
#X floatatom 801 259 5 0 0 0 - - - 0;
#X connect 1 0 2 0;
#X connect 1 1 2 1;
#X connect 1 2 12 1;
#X connect 1 3 12 0;
#X connect 1 4 13 0;
#X connect 1 5 13 1;
#X connect 1 6 14 1;
#X connect 1 7 14 0;
#X connect 4 0 6 0;
#X connect 4 1 5 0;
#X connect 5 0 7 0;
#X connect 6 0 7 0;
#X connect 8 0 4 0;
#X connect 9 0 8 0;
#X connect 10 0 8 0;
#X connect 11 0 1 1;
#X connect 11 0 1 0;
#X connect 15 0 1 1;
#X connect 16 0 1 2;
#X connect 17 0 1 3;
