#N canvas 903 269 450 300 12;
#X obj 101 97 lop~;
#X obj 82 41 inlet~;
#X obj 186 44 inlet;
#X obj 103 130 lop~;
#X obj 106 155 lop~;
#X obj 110 181 lop~;
#X obj 115 219 outlet~;
#X connect 0 0 3 0;
#X connect 1 0 0 0;
#X connect 2 0 0 1;
#X connect 2 0 3 1;
#X connect 2 0 4 1;
#X connect 2 0 5 1;
#X connect 3 0 4 0;
#X connect 4 0 5 0;
#X connect 5 0 6 0;
