#N canvas 267 116 958 847 12;
#X obj 103 155 oscparse;
#X msg 103 92 listen 5005;
#X obj 103 126 netreceive -u -b;
#X obj 103 186 list trim;
#X obj 103 228 route x_pos;
#X obj 192 228 route y_pos;
#X obj 280 228 route z_pos;
#X obj 368 228 route x_vel;
#X obj 458 228 route y_vel;
#X obj 553 228 route z_vel;
#X obj 643 228 route body;
#X floatatom 553 253 5 0 0 0 - - - 0;
#X floatatom 458 253 10 0 0 0 - - - 0;
#X floatatom 368 253 5 0 0 0 - - - 0;
#X floatatom 280 253 5 0 0 0 - - - 0;
#X floatatom 103 253 5 0 0 0 - - - 0;
#X floatatom 192 253 5 0 0 0 - - - 0;
#X floatatom 643 253 5 0 0 0 - - - 0;
#X obj 103 53 loadbang;
#X text 241 75 listens for the x \, y \, z \, velocity \, and body data;
#X text 68 395 do your audio in here;
#X obj 157 688 dac~ 1 2 3 4 5 6 7 8;
#X msg 62 213 20;
#X msg 220 162 20;
#X msg 329 167 20;
#X msg 401 153 0;
#X msg 446 160 30;
#X msg 495 131 0;
#X msg 540 138 30;
#X msg 587 145 0;
#X msg 632 152 30;
#X msg 687 134 20;
#X msg 732 141 60;
#X obj 334 374 topLevelPatch;
#X obj 534 533 osc~ 440;
#X obj 802 47 loadbang;
#X msg 802 72 \; pd dsp 1;
#X connect 0 0 3 0;
#X connect 1 0 2 0;
#X connect 2 0 0 0;
#X connect 3 0 4 0;
#X connect 3 0 5 0;
#X connect 3 0 6 0;
#X connect 3 0 7 0;
#X connect 3 0 8 0;
#X connect 3 0 9 0;
#X connect 3 0 10 0;
#X connect 4 0 15 0;
#X connect 5 0 16 0;
#X connect 6 0 14 0;
#X connect 7 0 13 0;
#X connect 8 0 12 0;
#X connect 9 0 11 0;
#X connect 10 0 17 0;
#X connect 11 0 33 5;
#X connect 12 0 33 4;
#X connect 13 0 33 3;
#X connect 14 0 33 2;
#X connect 15 0 33 0;
#X connect 16 0 33 1;
#X connect 17 0 33 6;
#X connect 18 0 1 0;
#X connect 18 0 22 0;
#X connect 18 0 23 0;
#X connect 18 0 24 0;
#X connect 18 0 25 0;
#X connect 18 0 27 0;
#X connect 18 0 30 0;
#X connect 18 0 32 0;
#X connect 22 0 15 0;
#X connect 23 0 16 0;
#X connect 24 0 14 0;
#X connect 25 0 13 0;
#X connect 26 0 13 0;
#X connect 27 0 12 0;
#X connect 28 0 12 0;
#X connect 29 0 11 0;
#X connect 30 0 11 0;
#X connect 31 0 17 0;
#X connect 32 0 17 0;
#X connect 33 0 21 0;
#X connect 33 1 21 1;
#X connect 33 2 21 2;
#X connect 33 3 21 3;
#X connect 33 4 21 4;
#X connect 33 5 21 5;
#X connect 33 6 21 6;
#X connect 33 7 21 7;
#X connect 35 0 36 0;
