#N canvas 0 28 1440 900 12;
#X obj 179 354 *~;
#X obj 166 435 *~;
#X obj 562 340 *~;
#X obj 563 408 *~;
#X obj 909 404 *~;
#X obj 898 325 *~;
#X obj 1270 404 *~;
#X obj 1252 340 *~;
#X obj 909 179 * 2, f 4;
#X obj 630 74 loadbang;
#X obj 912 226 osc~;
#X obj 1241 226 osc~;
#X text 45 279 signal input;
#X obj 66 308 inlet~;
#X obj 1294 963 outlet~;
#X obj 1169 961 outlet~;
#X obj 945 957 outlet~;
#X obj 822 958 outlet~;
#X obj 598 956 outlet~;
#X obj 454 959 outlet~;
#X obj 240 955 outlet~;
#X obj 101 955 outlet~;
#X text 78 80 need groups for y oscillations: 12 34 78 56;
#X text 68 38 need groups for x oscillations: 15 37 48 26;
#X obj 1061 438 inlet;
#X text 761 34 x velocity;
#X text 1054 409 y velocity;
#X text 730 290 XZ PLANE PANNING;
#X obj 1259 200 * 3;
#X text 200 442 15;
#X text 622 415 37;
#X text 974 409 48;
#X text 1312 402 26;
#X obj 189 667 *~;
#X obj 204 730 *~;
#X obj 572 653 *~;
#X obj 573 721 *~;
#X obj 919 717 *~;
#X obj 908 638 *~;
#X obj 1280 717 *~;
#X obj 1262 653 *~;
#X obj 919 492 * 2, f 4;
#X obj 587 532 osc~;
#X obj 922 539 osc~;
#X obj 1251 539 osc~;
#X obj 243 529 osc~;
#X obj 1269 513 * 3;
#X text 243 726 12;
#X text 606 717 34;
#X text 953 715 78;
#X text 1316 720 56;
#X text 772 619 YZ PLANE PANNING;
#X obj 623 134 float;
#X obj 704 389 loadbang;
#X obj 697 449 float;
#X text 631 773 I think these should be multiplying and not adding, f 23;
#X obj 780 63 inlet;
#X obj 233 216 osc~;
#X obj 577 219 osc~;
#X msg 314 223 0;
#X msg 670 222 0;
#X obj 670 197 loadbang;
#X msg 979 221 0;
#X msg 1306 252 0;
#X msg 327 564 0;
#X msg 684 554 0;
#X msg 1018 538 0;
#X msg 1304 549 0;
#X obj 806 506 loadbang;
#X obj 187 611 expr~ $v1 > $v2;
#X obj 545 598 expr~ $v1 > $v2;
#X obj 900 581 expr~ $v1 > $v2;
#X obj 1196 598 expr~ $v1 > $v2;
#X obj 1195 305 expr~ $v1 > $v2;
#X obj 874 284 expr~ $v1 > $v2;
#X obj 533 288 expr~ $v1 > $v2;
#X obj 184 266 expr~ $v1 > $v2;
#X obj 103 770 +~;
#X obj 245 779 +~;
#X obj 460 774 +~;
#X obj 595 776 +~;
#X obj 827 776 +~;
#X obj 947 771 +~;
#X obj 1172 781 +~;
#X obj 1304 782 +~;
#X obj 249 815 /~ 1;
#X obj 97 811 /~ 1;
#X obj 456 819 /~ 1;
#X obj 593 822 /~ 1;
#X obj 820 828 /~ 1;
#X obj 959 824 /~ 1;
#X obj 1164 827 /~ 1;
#X obj 1301 829 /~ 1;
#X msg 621 102 1.5708;
#X msg 695 417 1.5708;
#X floatatom 656 261 5 0 0 0 - - - 0;
#X floatatom 314 247 5 0 0 0 - - - 0;
#X floatatom 986 251 5 0 0 0 - - - 0;
#X floatatom 1306 276 5 0 0 0 - - - 0;
#X floatatom 665 579 5 0 0 0 - - - 0;
#X floatatom 316 588 5 0 0 0 - - - 0;
#X floatatom 1018 562 5 0 0 0 - - - 0;
#X floatatom 1304 573 5 0 0 0 - - - 0;
#X floatatom 782 104 5 0 0 0 - - - 0;
#X connect 0 0 1 0;
#X connect 0 0 81 0;
#X connect 1 0 77 0;
#X connect 2 0 3 1;
#X connect 3 0 83 1;
#X connect 3 0 79 0;
#X connect 4 0 84 1;
#X connect 4 0 80 1;
#X connect 5 0 4 1;
#X connect 6 0 82 0;
#X connect 6 0 78 1;
#X connect 7 0 6 1;
#X connect 8 0 10 1;
#X connect 9 0 93 0;
#X connect 10 0 5 0;
#X connect 10 0 74 0;
#X connect 11 0 7 0;
#X connect 11 0 73 0;
#X connect 13 0 1 1;
#X connect 13 0 3 0;
#X connect 13 0 4 0;
#X connect 13 0 6 0;
#X connect 13 0 34 1;
#X connect 13 0 36 0;
#X connect 13 0 37 0;
#X connect 13 0 39 0;
#X connect 24 0 44 0;
#X connect 24 0 43 0;
#X connect 24 0 42 0;
#X connect 24 0 45 0;
#X connect 28 0 11 1;
#X connect 33 0 34 0;
#X connect 34 0 78 0;
#X connect 34 0 77 1;
#X connect 35 0 36 1;
#X connect 36 0 80 0;
#X connect 36 0 79 1;
#X connect 37 0 84 0;
#X connect 37 0 83 0;
#X connect 38 0 37 1;
#X connect 39 0 82 1;
#X connect 39 0 81 1;
#X connect 40 0 39 1;
#X connect 41 0 43 1;
#X connect 42 0 35 1;
#X connect 42 0 70 0;
#X connect 43 0 38 0;
#X connect 43 0 71 0;
#X connect 44 0 40 0;
#X connect 44 0 72 0;
#X connect 45 0 33 1;
#X connect 45 0 69 0;
#X connect 46 0 44 1;
#X connect 52 0 8 0;
#X connect 52 0 28 0;
#X connect 52 0 58 1;
#X connect 53 0 94 0;
#X connect 54 0 42 1;
#X connect 54 0 41 0;
#X connect 54 0 46 0;
#X connect 56 0 10 0;
#X connect 56 0 11 0;
#X connect 56 0 57 0;
#X connect 56 0 58 0;
#X connect 56 0 103 0;
#X connect 57 0 0 1;
#X connect 57 0 76 0;
#X connect 58 0 2 1;
#X connect 58 0 75 0;
#X connect 59 0 96 0;
#X connect 60 0 95 0;
#X connect 61 0 60 0;
#X connect 61 0 59 0;
#X connect 61 0 62 0;
#X connect 61 0 63 0;
#X connect 62 0 97 0;
#X connect 63 0 98 0;
#X connect 64 0 100 0;
#X connect 65 0 99 0;
#X connect 66 0 101 0;
#X connect 67 0 102 0;
#X connect 68 0 65 0;
#X connect 68 0 64 0;
#X connect 68 0 66 0;
#X connect 68 0 67 0;
#X connect 69 0 33 0;
#X connect 70 0 35 0;
#X connect 71 0 38 1;
#X connect 72 0 40 1;
#X connect 73 0 7 1;
#X connect 74 0 5 0;
#X connect 75 0 2 0;
#X connect 76 0 0 0;
#X connect 77 0 86 0;
#X connect 78 0 85 0;
#X connect 79 0 87 0;
#X connect 80 0 88 0;
#X connect 81 0 89 0;
#X connect 82 0 90 0;
#X connect 83 0 91 0;
#X connect 84 0 92 0;
#X connect 85 0 20 0;
#X connect 86 0 21 0;
#X connect 87 0 19 0;
#X connect 88 0 18 0;
#X connect 89 0 17 0;
#X connect 90 0 16 0;
#X connect 91 0 15 0;
#X connect 92 0 14 0;
#X connect 93 0 52 0;
#X connect 94 0 54 0;
#X connect 95 0 75 1;
#X connect 96 0 76 1;
#X connect 97 0 74 1;
#X connect 98 0 73 1;
#X connect 99 0 70 1;
#X connect 100 0 69 1;
#X connect 101 0 71 1;
#X connect 102 0 72 1;
