#N canvas 156 159 790 555 12;
#X obj 54 59 inlet~;
#X obj 329 305 + 3;
#X obj 328 266 / 100;
#X obj 330 228 random 800;
#X floatatom 243 361 5 0 0 0 - - - 0;
#X obj 243 334 /;
#X msg 228 288 1;
#X obj 1031 102 metro 10000;
#X obj 528 312 + 3;
#X obj 527 273 / 100;
#X obj 529 235 random 800;
#X floatatom 442 368 5 0 0 0 - - - 0;
#X obj 442 341 /;
#X msg 427 295 1;
#X obj 737 314 + 3;
#X obj 736 275 / 100;
#X obj 738 237 random 800;
#X floatatom 651 370 5 0 0 0 - - - 0;
#X obj 651 343 /;
#X msg 636 297 1;
#X obj 945 317 + 3;
#X obj 944 278 / 100;
#X obj 946 240 random 800;
#X floatatom 859 373 5 0 0 0 - - - 0;
#X obj 859 346 /;
#X msg 844 300 1;
#X obj 1154 320 + 3;
#X obj 1153 281 / 100;
#X obj 1155 243 random 800;
#X floatatom 1068 376 5 0 0 0 - - - 0;
#X obj 1068 349 /;
#X msg 1053 303 1;
#X obj 1353 327 + 3;
#X obj 1352 288 / 100;
#X obj 1354 250 random 800;
#X floatatom 1267 383 5 0 0 0 - - - 0;
#X obj 1267 356 /;
#X msg 1252 310 1;
#X obj 1562 329 + 3;
#X obj 1561 290 / 100;
#X obj 1563 252 random 800;
#X floatatom 1476 385 5 0 0 0 - - - 0;
#X obj 1476 358 /;
#X msg 1461 312 1;
#X obj 1770 332 + 3;
#X obj 1769 293 / 100;
#X obj 1771 255 random 800;
#X floatatom 1684 388 5 0 0 0 - - - 0;
#X obj 1684 361 /;
#X msg 1669 315 1;
#X obj 264 409 osc~ 0.1 0.1;
#X obj 666 410 osc~ 0.16 0.2;
#X obj 1087 412 osc~ 0.09 0.3;
#X obj 1497 423 osc~ 0.2 0.4;
#X obj 439 408 osc~ 0.23 0.6;
#X obj 870 414 osc~ 0.28 0.7;
#X obj 1290 420 osc~ 0.3 0.8;
#X obj 1713 425 osc~ 0.35 0.9;
#X obj 241 471 *~;
#X obj 663 467 *~;
#X obj 877 474 *~;
#X obj 1103 472 *~;
#X obj 1298 485 *~;
#X obj 1504 478 *~;
#X obj 1733 485 *~;
#X obj 427 474 *~;
#X obj 237 548 outlet~;
#X obj 430 580 outlet~;
#X obj 1106 552 outlet~;
#X obj 1302 563 outlet~;
#X obj 872 558 outlet~;
#X obj 1511 555 outlet~;
#X obj 637 554 outlet~;
#X obj 1737 560 outlet~;
#X obj 272 443 +~ 0.5;
#X obj 445 439 +~ 0.5;
#X obj 882 447 +~ 0.5;
#X obj 1111 444 +~ 0.5;
#X obj 1302 452 +~ 0.5;
#X obj 1508 453 +~ 0.5;
#X obj 1730 456 +~ 0.5;
#X obj 670 435 +~ 0.5;
#X connect 0 0 58 0;
#X connect 0 0 65 0;
#X connect 0 0 59 0;
#X connect 0 0 60 0;
#X connect 0 0 61 0;
#X connect 0 0 62 0;
#X connect 0 0 63 0;
#X connect 0 0 64 0;
#X connect 1 0 5 1;
#X connect 2 0 1 0;
#X connect 3 0 2 0;
#X connect 4 0 50 0;
#X connect 5 0 4 0;
#X connect 6 0 5 0;
#X connect 7 0 3 0;
#X connect 7 0 6 0;
#X connect 7 0 13 0;
#X connect 7 0 10 0;
#X connect 7 0 19 0;
#X connect 7 0 16 0;
#X connect 7 0 25 0;
#X connect 7 0 22 0;
#X connect 7 0 31 0;
#X connect 7 0 28 0;
#X connect 7 0 37 0;
#X connect 7 0 34 0;
#X connect 7 0 43 0;
#X connect 7 0 40 0;
#X connect 7 0 49 0;
#X connect 7 0 46 0;
#X connect 8 0 12 1;
#X connect 9 0 8 0;
#X connect 10 0 9 0;
#X connect 11 0 54 0;
#X connect 12 0 11 0;
#X connect 13 0 12 0;
#X connect 14 0 18 1;
#X connect 15 0 14 0;
#X connect 16 0 15 0;
#X connect 17 0 51 0;
#X connect 18 0 17 0;
#X connect 19 0 18 0;
#X connect 20 0 24 1;
#X connect 21 0 20 0;
#X connect 22 0 21 0;
#X connect 23 0 55 0;
#X connect 24 0 23 0;
#X connect 25 0 24 0;
#X connect 26 0 30 1;
#X connect 27 0 26 0;
#X connect 28 0 27 0;
#X connect 29 0 52 0;
#X connect 30 0 29 0;
#X connect 31 0 30 0;
#X connect 32 0 36 1;
#X connect 33 0 32 0;
#X connect 34 0 33 0;
#X connect 35 0 56 0;
#X connect 36 0 35 0;
#X connect 37 0 36 0;
#X connect 38 0 42 1;
#X connect 39 0 38 0;
#X connect 40 0 39 0;
#X connect 41 0 53 0;
#X connect 42 0 41 0;
#X connect 43 0 42 0;
#X connect 44 0 48 1;
#X connect 45 0 44 0;
#X connect 46 0 45 0;
#X connect 47 0 57 0;
#X connect 48 0 47 0;
#X connect 49 0 48 0;
#X connect 50 0 74 0;
#X connect 51 0 81 0;
#X connect 52 0 77 0;
#X connect 53 0 79 0;
#X connect 54 0 75 0;
#X connect 55 0 76 0;
#X connect 56 0 78 0;
#X connect 57 0 80 0;
#X connect 58 0 66 0;
#X connect 59 0 72 0;
#X connect 60 0 70 0;
#X connect 61 0 68 0;
#X connect 62 0 69 0;
#X connect 63 0 71 0;
#X connect 64 0 73 0;
#X connect 65 0 67 0;
#X connect 74 0 58 1;
#X connect 75 0 65 1;
#X connect 76 0 60 1;
#X connect 77 0 61 1;
#X connect 78 0 62 1;
#X connect 79 0 63 1;
#X connect 80 0 64 1;
#X connect 81 0 59 1;
