#N canvas 346 190 741 475 12;
#X obj 182 89 inlet;
#X obj 191 183 unpack f f f f;
#X obj 196 240 +;
#X text 325 79 argument1: minimum input value argument2: max input value argument3: min output value argument4: max output value;
#X obj 92 96 inlet;
#X obj 246 278 /;
#X obj 194 350 +;
#X obj 141 309 *;
#X obj 263 222 -;
#X text 298 29 inlet 1: input value inlet 2: scaling values (see below);
#X obj 197 432 outlet;
#X connect 0 0 1 0;
#X connect 1 0 2 0;
#X connect 1 1 5 1;
#X connect 1 2 2 1;
#X connect 1 2 8 1;
#X connect 1 3 8 0;
#X connect 2 0 6 1;
#X connect 4 0 7 0;
#X connect 5 0 7 1;
#X connect 6 0 10 0;
#X connect 7 0 6 0;
#X connect 8 0 5 0;
