#N canvas 627 187 678 489 12;
#X obj 702 23 osc~ 560;
#X obj 79 195 *~;
#X obj 336 140 osc~ 0.102 0.2;
#X obj 274 192 *~;
#X obj 473 193 *~;
#X obj 558 140 osc~ 0.05 0.1;
#X obj 127 145 osc~ 0.03;
#X obj 702 125 *~;
#X obj 765 74 osc~ 0.1;
#X obj 1121 193 *~;
#X obj 1191 146 osc~ 0.04;
#X obj 1347 196 *~;
#X obj 916 25 osc~ 561;
#X obj 902 122 *~;
#X obj 974 73 osc~ 0.09 0.3;
#X obj 1570 196 *~;
#X obj 1830 207 osc~ 0.01;
#X obj 1757 252 *~;
#X obj 712 173 *~;
#X obj 915 158 *~;
#X obj 777 120 osc~ 0.02;
#X obj 978 107 osc~ 0.21;
#X obj 74 114 osc~ 305;
#X obj 278 90 osc~ 375;
#X obj 478 91 osc~ 354;
#X obj 712 -59 osc~ 0.03;
#X obj 915 -50 osc~ 0.03 0.4;
#X obj 697 -3 +~ 560;
#X obj 699 -32 *~ 30;
#X obj 914 -21 *~ 25;
#X obj 913 2 +~ 561;
#X obj 969 135 +~ 0.5;
#X obj 756 152 +~ 0.5;
#X obj 77 48 *~ 30;
#X obj 75 77 +~ 305;
#X obj 90 21 osc~ 0.01;
#X obj 282 62 +~ 375;
#X obj 297 6 osc~ 0.025;
#X obj 284 33 *~ 20;
#X obj 485 19 *~ 30;
#X obj 483 48 +~ 354;
#X obj 498 -8 osc~ 0.02 0.3;
#X obj 1159 168 +~ 0.5;
#X obj 1388 176 +~ 0.5;
#X obj 1420 144 osc~ 0.04 0.5;
#X msg 1298 94 0;
#X msg 1413 49 0.5;
#X obj 1336 48 loadbang;
#X obj 1136 94 osc~ 100;
#X obj 119 180 +~ 0.5;
#X obj 518 171 +~ 0.5;
#X obj 311 161 +~ 0.5;
#X obj 634 433 +~;
#X obj 1191 -41 osc~ 0.02;
#X obj 1190 -14 *~ 20;
#X obj 1153 31 +~ 100;
#X obj 1360 96 osc~ 150;
#X obj 1242 15 +~ 150;
#X obj 630 469 outlet~;
#X obj 1596 5 inlet;
#X obj 1769 -34 inlet;
#X text 1560 -20 xval;
#X text 1733 -32 yval;
#X obj 1611 171 +~ 0.5;
#X obj 1652 89 + 0.5;
#X obj 1632 143 osc~ 0.5;
#X obj 1655 63 *;
#X obj 1624 33 * 3.5;
#X obj 1571 144 *~ 2;
#X obj 1578 97 osc~ 180;
#X obj 1741 131 osc~ 220;
#X msg 1746 96 220;
#X obj 1862 -39 loadbang;
#X obj 1829 71 * 2;
#X obj 1828 99 osc~;
#X obj 1889 96 osc~;
#X obj 1891 76 * 3;
#X obj 1832 163 *~;
#X obj 1827 123 /~ 3;
#X obj 1889 123 /~ 4;
#X obj 1826 300 *~;
#X obj 1944 198 +~ 0.5;
#X obj 1985 116 + 0.5;
#X obj 1965 170 osc~ 0.5;
#X obj 1988 90 *;
#X obj 1957 60 * 3.5;
#X obj 1847 16 -;
#X msg 1846 -10 1;
#X floatatom 1929 10 5 0 0 0 - - - 0;
#X obj 1848 -65 t b f;
#X text 2441 512 eeeeeeek;
#X obj 1731 72 loadbang;
#X text 1900 -9 inverts yval;
#X text 40 -49 Sound 1: creates a lot of pulsing and beating. Triggered and by a certain y value. y value changes mod freq of 180Hz wave and x value changes mod freq of 220 Hz wave;
#X connect 0 0 7 0;
#X connect 1 0 52 0;
#X connect 2 0 51 0;
#X connect 3 0 52 0;
#X connect 4 0 52 0;
#X connect 5 0 50 0;
#X connect 6 0 49 0;
#X connect 7 0 18 0;
#X connect 8 0 7 1;
#X connect 9 0 52 0;
#X connect 10 0 42 0;
#X connect 11 0 52 0;
#X connect 12 0 13 0;
#X connect 13 0 19 0;
#X connect 14 0 13 1;
#X connect 15 0 52 0;
#X connect 16 0 17 1;
#X connect 17 0 80 0;
#X connect 18 0 52 0;
#X connect 19 0 52 0;
#X connect 20 0 32 0;
#X connect 21 0 31 0;
#X connect 22 0 1 0;
#X connect 23 0 3 0;
#X connect 24 0 4 0;
#X connect 25 0 28 0;
#X connect 26 0 29 0;
#X connect 27 0 0 0;
#X connect 28 0 27 0;
#X connect 29 0 30 0;
#X connect 30 0 12 0;
#X connect 31 0 19 1;
#X connect 32 0 18 1;
#X connect 33 0 34 0;
#X connect 34 0 22 0;
#X connect 35 0 33 0;
#X connect 36 0 23 0;
#X connect 37 0 38 0;
#X connect 38 0 36 0;
#X connect 39 0 40 0;
#X connect 40 0 24 0;
#X connect 41 0 39 0;
#X connect 42 0 9 1;
#X connect 43 0 11 1;
#X connect 44 0 43 0;
#X connect 45 0 10 1;
#X connect 46 0 44 1;
#X connect 47 0 45 0;
#X connect 47 0 46 0;
#X connect 48 0 9 0;
#X connect 49 0 1 1;
#X connect 50 0 4 1;
#X connect 51 0 3 1;
#X connect 52 0 58 0;
#X connect 53 0 54 0;
#X connect 54 0 55 0;
#X connect 54 0 57 0;
#X connect 55 0 48 0;
#X connect 56 0 11 0;
#X connect 57 0 56 0;
#X connect 59 0 67 0;
#X connect 60 0 89 0;
#X connect 63 0 15 1;
#X connect 64 0 65 0;
#X connect 65 0 63 0;
#X connect 66 0 64 0;
#X connect 67 0 66 0;
#X connect 67 0 66 1;
#X connect 68 0 15 0;
#X connect 69 0 68 0;
#X connect 70 0 17 0;
#X connect 71 0 70 0;
#X connect 71 0 73 0;
#X connect 71 0 76 0;
#X connect 72 0 87 0;
#X connect 73 0 74 0;
#X connect 74 0 78 0;
#X connect 75 0 79 0;
#X connect 76 0 75 0;
#X connect 77 0 17 0;
#X connect 78 0 77 0;
#X connect 79 0 77 0;
#X connect 80 0 52 0;
#X connect 81 0 80 1;
#X connect 82 0 83 0;
#X connect 83 0 81 0;
#X connect 84 0 82 0;
#X connect 85 0 84 0;
#X connect 85 0 84 1;
#X connect 86 0 85 0;
#X connect 86 0 77 1;
#X connect 86 0 88 0;
#X connect 87 0 86 0;
#X connect 89 0 87 0;
#X connect 89 1 86 1;
#X connect 91 0 71 0;
