#N canvas 562 104 831 628 12;
#X obj 173 99 inlet;
#X text 169 79 xvel;
#X obj 487 78 inlet;
#X text 483 58 yvel;
#X obj 766 77 inlet;
#X text 762 57 zvel;
#X obj 92 201 noise~;
#X obj 120 276 bp~, f 6;
#X obj 120 321 bp~, f 6;
#X obj 468 529 outlet~;
#X obj 129 415 *~;
#X obj 239 250 loadbang;
#X obj 170 173 scale;
#X msg 218 152 0 1 600 1200;
#X obj 219 129 loadbang;
#X msg 241 277 6;
#X obj 190 368 expr pow($f1 \, 0.333);
#X obj 456 484 +~;
#X obj 401 203 noise~;
#X obj 429 278 bp~, f 6;
#X obj 429 323 bp~, f 6;
#X obj 438 417 *~;
#X obj 548 252 loadbang;
#X obj 479 175 scale;
#X msg 527 154 0 1 600 1200;
#X obj 528 131 loadbang;
#X msg 550 279 6;
#X obj 711 207 noise~;
#X obj 739 282 bp~, f 6;
#X obj 739 327 bp~, f 6;
#X obj 748 421 *~;
#X obj 858 256 loadbang;
#X obj 789 179 scale;
#X msg 837 158 0 1 600 1200;
#X obj 838 135 loadbang;
#X msg 860 283 6;
#X obj 809 374 expr pow($f1 \, 0.333);
#X obj 499 370 expr pow($f1 \, 0.333);
#X connect 0 0 12 0;
#X connect 0 0 16 0;
#X connect 2 0 23 0;
#X connect 2 0 37 0;
#X connect 4 0 32 0;
#X connect 4 0 36 0;
#X connect 6 0 7 0;
#X connect 7 0 8 0;
#X connect 8 0 10 0;
#X connect 10 0 17 0;
#X connect 11 0 15 0;
#X connect 12 0 7 1;
#X connect 12 0 8 1;
#X connect 13 0 12 1;
#X connect 14 0 13 0;
#X connect 15 0 7 2;
#X connect 15 0 8 2;
#X connect 16 0 10 1;
#X connect 17 0 9 0;
#X connect 18 0 19 0;
#X connect 19 0 20 0;
#X connect 20 0 21 0;
#X connect 21 0 17 0;
#X connect 22 0 26 0;
#X connect 23 0 19 1;
#X connect 23 0 20 1;
#X connect 24 0 23 1;
#X connect 25 0 24 0;
#X connect 26 0 19 2;
#X connect 26 0 20 2;
#X connect 27 0 28 0;
#X connect 28 0 29 0;
#X connect 29 0 30 0;
#X connect 30 0 17 0;
#X connect 31 0 35 0;
#X connect 32 0 28 1;
#X connect 32 0 29 1;
#X connect 33 0 32 1;
#X connect 34 0 33 0;
#X connect 35 0 28 2;
#X connect 35 0 29 2;
#X connect 36 0 30 1;
#X connect 37 0 21 1;
