#N canvas 522 117 855 613 12;
#X obj 41 128 loadbang;
#X obj 88 223 metro 500;
#X obj 111 259 bng 19 250 50 0 empty empty empty 0 -10 0 12 #fcfcfc #000000 #000000;
#X msg 159 261 0;
#X obj 170 297 + 1;
#X obj 112 301 f 0;
#X floatatom 112 383 5 0 0 0 - - - 0;
#X obj 146 340 sel 7;
#X obj 114 451 sel 0 1 2 3 4 5 6 7;
#X obj 355 285 unpack 0 1 2 3 4 5 6 7;
#X obj 114 492 bng 19 250 50 0 empty empty empty 0 -10 0 12 #fcfcfc #000000 #000000;
#X obj 139 492 bng 19 250 50 0 empty empty empty 0 -10 0 12 #fcfcfc #000000 #000000;
#X obj 165 492 bng 19 250 50 0 empty empty empty 0 -10 0 12 #fcfcfc #000000 #000000;
#X obj 190 492 bng 19 250 50 0 empty empty empty 0 -10 0 12 #fcfcfc #000000 #000000;
#X obj 215 492 bng 19 250 50 0 empty empty empty 0 -10 0 12 #fcfcfc #000000 #000000;
#X obj 240 492 bng 19 250 50 0 empty empty empty 0 -10 0 12 #fcfcfc #000000 #000000;
#X obj 266 492 bng 19 250 50 0 empty empty empty 0 -10 0 12 #fcfcfc #000000 #000000;
#X obj 291 492 bng 19 250 50 0 empty empty empty 0 -10 0 12 #fcfcfc #000000 #000000;
#X floatatom 208 600 5 0 0 0 - - - 0;
#X obj 332 71 loadbang;
#X obj 208 655 mtof;
#X floatatom 479 451 5 0 0 0 - - - 0;
#X obj 339 105 metro 120000;
#X obj 114 533 f 61;
#X obj 146 534 f 63;
#X obj 178 534 f 65;
#X obj 209 534 f 66;
#X obj 239 535 f 68;
#X obj 270 534 f 70;
#X obj 301 534 f 72;
#X obj 333 534 f 73;
#X obj 342 141 random 8;
#X obj 478 486 osc~;
#X msg 261 206 73 72 68 63 70 68 72 70;
#X msg 261 230 66 66 67 66 67 68 69 70;
#X msg 261 257 65 66 70 66 63 61 60 63;
#X msg 261 182 61 63 65 66 65 63 65 60;
#X msg 440 182 61 61 73 72 68 70 72 73;
#X msg 440 205 61 65 68 66 68 66 63 60;
#X msg 440 230 61 65 68 66 65 66 63 60;
#X msg 440 257 61 60 61 65 66 68 65 63;
#X obj 487 95 bng 19 250 50 0 empty empty empty 0 -10 0 12 #fcfcfc #000000 #000000;
#X obj 448 142 sel 1 2 3 4 5 6 7 8;
#X floatatom 350 328 5 0 0 0 - - - 0;
#X floatatom 393 329 5 0 0 0 - - - 0;
#X floatatom 434 329 5 0 0 0 - - - 0;
#X floatatom 475 329 5 0 0 0 - - - 0;
#X floatatom 516 329 5 0 0 0 - - - 0;
#X floatatom 557 329 5 0 0 0 - - - 0;
#X floatatom 597 329 5 0 0 0 - - - 0;
#X floatatom 638 329 5 0 0 0 - - - 0;
#X text 385 310 notes being played;
#X obj 473 548 *~;
#X obj 551 562 *~;
#X obj 759 411 / 2;
#X obj 503 514 * -1;
#X obj 503 536 + 1;
#X obj 759 440 + 0;
#X obj 759 379 inlet;
#X obj 188 67 inlet;
#X obj 191 107 * -950;
#X text 235 71 changes speed based on xval, f 10;
#X obj 820 350 loadbang 50;
#X floatatom 266 138 5 0 0 0 - - - 0;
#X floatatom 833 427 5 0 0 0 - - - 0;
#X obj 515 588 +~;
#X obj 514 691 outlet~;
#X text 182 87 xval;
#X text 788 397 yval;
#X obj 983 311 line;
#X obj 149 179 +;
#X obj 108 136 random 5000;
#X obj 867 226 bng 19 250 50 0 empty empty empty 0 -10 0 12 #fcfcfc #000000 #000000;
#X floatatom 1008 381 5 0 0 0 - - - 0;
#X obj 1066 292 bng 19 250 50 0 empty empty empty 0 -10 0 12 #fcfcfc #000000 #000000;
#X msg 947 242 1 1;
#X obj 998 245 delay 1;
#X obj 512 622 *~;
#X msg 1078 244 0 2000;
#X obj 589 620 loadbang;
#X obj 517 660 rev1~;
#X msg 587 638 80;
#X obj 558 487 osc~;
#X obj 620 487 osc~;
#X obj 550 450 * 2;
#X obj 614 454 * 3;
#X obj 669 454 * 4;
#X obj 669 487 osc~;
#X obj 558 513 /~ 2;
#X obj 617 522 /~ 3;
#X obj 665 521 /~ 4;
#X text 26 8 Sound 2: Arpeggiator that plays different melodies. xvalue determines average speed of sequencer and yvalue determines amplitude of first two partials;
#X text 9 193 randomize the sequencer tempo each beat, f 11;
#X text 617 178 these are the possible melodies;
#X text 948 215 little adsr (actually just AR);
#X text 549 429 first couple partials;
#X text 751 483 changes level of partials based on yval;
#X connect 0 0 1 0;
#X connect 1 0 2 0;
#X connect 1 0 71 0;
#X connect 1 0 72 0;
#X connect 2 0 5 0;
#X connect 3 0 5 1;
#X connect 4 0 5 1;
#X connect 5 0 4 0;
#X connect 5 0 6 0;
#X connect 5 0 7 0;
#X connect 6 0 8 0;
#X connect 7 0 3 0;
#X connect 8 0 10 0;
#X connect 8 1 11 0;
#X connect 8 2 12 0;
#X connect 8 3 13 0;
#X connect 8 4 14 0;
#X connect 8 5 15 0;
#X connect 8 6 16 0;
#X connect 8 7 17 0;
#X connect 9 0 23 1;
#X connect 9 0 43 0;
#X connect 9 1 24 1;
#X connect 9 1 44 0;
#X connect 9 2 25 1;
#X connect 9 2 45 0;
#X connect 9 3 26 1;
#X connect 9 3 46 0;
#X connect 9 4 27 1;
#X connect 9 4 47 0;
#X connect 9 5 28 1;
#X connect 9 5 48 0;
#X connect 9 6 29 1;
#X connect 9 6 49 0;
#X connect 9 7 30 1;
#X connect 9 7 50 0;
#X connect 10 0 23 0;
#X connect 11 0 24 0;
#X connect 12 0 25 0;
#X connect 13 0 26 0;
#X connect 14 0 27 0;
#X connect 15 0 28 0;
#X connect 16 0 29 0;
#X connect 17 0 30 0;
#X connect 18 0 20 0;
#X connect 19 0 22 0;
#X connect 19 0 31 0;
#X connect 20 0 21 0;
#X connect 21 0 32 0;
#X connect 21 0 84 0;
#X connect 21 0 85 0;
#X connect 21 0 86 0;
#X connect 22 0 31 0;
#X connect 23 0 18 0;
#X connect 24 0 18 0;
#X connect 25 0 18 0;
#X connect 26 0 18 0;
#X connect 27 0 18 0;
#X connect 28 0 18 0;
#X connect 29 0 18 0;
#X connect 30 0 18 0;
#X connect 31 0 42 0;
#X connect 32 0 52 0;
#X connect 33 0 9 0;
#X connect 34 0 9 0;
#X connect 35 0 9 0;
#X connect 36 0 9 0;
#X connect 37 0 9 0;
#X connect 38 0 9 0;
#X connect 39 0 9 0;
#X connect 40 0 9 0;
#X connect 41 0 31 0;
#X connect 42 0 36 0;
#X connect 42 1 33 0;
#X connect 42 2 34 0;
#X connect 42 3 35 0;
#X connect 42 4 37 0;
#X connect 42 5 38 0;
#X connect 42 6 39 0;
#X connect 42 7 40 0;
#X connect 52 0 65 0;
#X connect 53 0 65 1;
#X connect 54 0 57 0;
#X connect 55 0 56 0;
#X connect 56 0 52 1;
#X connect 57 0 53 1;
#X connect 57 0 55 0;
#X connect 58 0 54 0;
#X connect 59 0 60 0;
#X connect 59 0 63 0;
#X connect 60 0 70 1;
#X connect 62 0 54 0;
#X connect 65 0 77 0;
#X connect 69 0 73 0;
#X connect 69 0 74 0;
#X connect 70 0 1 1;
#X connect 71 0 70 0;
#X connect 72 0 75 0;
#X connect 73 0 77 1;
#X connect 75 0 69 0;
#X connect 75 0 76 0;
#X connect 76 0 78 0;
#X connect 77 0 80 0;
#X connect 78 0 69 0;
#X connect 79 0 81 0;
#X connect 80 0 66 0;
#X connect 81 0 80 1;
#X connect 82 0 88 0;
#X connect 83 0 89 0;
#X connect 84 0 82 0;
#X connect 85 0 83 0;
#X connect 86 0 87 0;
#X connect 87 0 90 0;
#X connect 88 0 53 0;
#X connect 89 0 53 0;
#X connect 90 0 53 0;
