#N canvas 503 79 937 651 12;
#X obj 221 383 noise~;
#X obj 252 486 bp~;
#X floatatom 317 396 5 0 0 0 - - - 0;
#X floatatom 399 424 5 0 0 0 - - - 0;
#X text 815 160 zval;
#X text 454 84 yval;
#X floatatom 368 552 5 0 0 0 - - - 0;
#X obj 817 184 inlet;
#X obj 455 107 inlet;
#X obj 241 545 *~;
#X obj 315 328 * 400;
#X obj 313 356 + 600;
#X obj 398 394 + 5;
#X obj 397 363 * 95;
#X obj 645 385 noise~;
#X obj 676 488 bp~;
#X floatatom 741 398 5 0 0 0 - - - 0;
#X floatatom 823 426 5 0 0 0 - - - 0;
#X floatatom 792 554 5 0 0 0 - - - 0;
#X obj 665 547 *~;
#X obj 739 330 * 400;
#X obj 822 396 + 5;
#X obj 821 365 * 95;
#X obj 652 609 *~;
#X obj 748 613 * 3;
#X obj 820 611 * -1;
#X obj 788 623 + 1;
#X obj 710 635 + 1;
#X obj 737 358 + 246;
#X obj 357 752 rev1~;
#X obj 321 678 +~;
#X msg 417 726 40;
#X obj 425 699 loadbang;
#X obj 360 821 outlet~;
#X obj 429 528 + 0.5;
#X obj 853 530 + 0.5;
#X obj 458 498 * 1.2;
#X obj 855 489 * 1.2;
#X connect 0 0 1 0;
#X connect 1 0 9 0;
#X connect 2 0 1 1;
#X connect 3 0 1 2;
#X connect 6 0 9 1;
#X connect 7 0 13 0;
#X connect 7 0 22 0;
#X connect 7 0 36 0;
#X connect 7 0 36 1;
#X connect 7 0 37 0;
#X connect 7 0 37 1;
#X connect 8 0 10 0;
#X connect 8 0 20 0;
#X connect 8 0 25 0;
#X connect 9 0 30 0;
#X connect 10 0 11 0;
#X connect 11 0 2 0;
#X connect 12 0 3 0;
#X connect 13 0 12 0;
#X connect 14 0 15 0;
#X connect 15 0 19 0;
#X connect 16 0 15 1;
#X connect 17 0 15 2;
#X connect 18 0 19 1;
#X connect 19 0 23 0;
#X connect 20 0 28 0;
#X connect 21 0 17 0;
#X connect 22 0 21 0;
#X connect 23 0 30 1;
#X connect 24 0 27 0;
#X connect 25 0 26 0;
#X connect 26 0 24 0;
#X connect 27 0 23 1;
#X connect 28 0 16 0;
#X connect 29 0 33 0;
#X connect 30 0 29 0;
#X connect 31 0 29 1;
#X connect 32 0 31 0;
#X connect 34 0 6 0;
#X connect 35 0 18 0;
#X connect 36 0 34 0;
#X connect 37 0 35 0;
