#N canvas 0 0 1440 900 12;
#X text 620 73 Threshold value;
#X text 174 870 Top speakers front;
#X text 473 870 Top speakers back;
#X text 843 877 Bottom speakers front;
#X text 1135 870 Bottom speakers back;
#X text 620 -7 x velocity;
#X text 726 -11 y velocity;
#X text 822 -63 z velocity;
#X obj 761 186 abs;
#X floatatom 688 516 5 0 0 0 - - -;
#X text 589 552 Frequency of x panning;
#X text 403 40 This will probs become an inlet later, f 15;
#X obj 895 206 abs;
#X floatatom 910 533 5 0 0 0 - - -;
#X text 812 583 Frequency of y panning;
#X obj 184 812 outlet~;
#X obj 271 814 outlet~;
#X obj 484 812 outlet~;
#X obj 572 824 outlet~;
#X obj 831 806 outlet~;
#X obj 963 814 outlet~;
#X obj 1156 821 outlet~;
#X obj 1259 817 outlet~;
#X obj 696 694 panner_3dof;
#X obj 657 19 inlet;
#X obj 768 16 inlet;
#X obj 844 27 inlet;
#X obj 720 406 loadbang;
#X obj 973 472 loadbang;
#X obj 511 -11 loadbang;
#X text 107 23 square wave osc with pwm;
#X obj 424 615 line;
#X obj 251 655 *~;
#X obj 111 494 phasor~;
#X obj 160 578 expr~ $v1 > $v2;
#X obj 290 459 osc~;
#X text 395 -19 threshold on hand velocity to trigger swoosh, f 16
;
#X obj 117 374 osc~;
#X msg 447 549 0 8000;
#X obj 629 471 *;
#X obj 614 583 *;
#X obj 751 595 *;
#X obj 833 492 *;
#X obj 752 96 float;
#X obj 840 122 float;
#X msg 646 326 1;
#X msg 875 434 1;
#X obj 1070 386 select;
#X floatatom 667 220 5 0 0 0 - - -;
#X msg 699 302 0;
#X floatatom 650 387 5 0 0 0 - - -;
#X msg 609 171 -2;
#X obj 571 92 loadbang;
#X obj 651 140 bng 19 250 50 0 empty empty empty 0 -10 0 12 -262144
-1 -1;
#X msg 952 438 0;
#X floatatom 905 468 5 0 0 0 - - -;
#X msg 1095 245 -2;
#X obj 1057 166 loadbang;
#X obj 1137 214 bng 19 250 50 0 empty empty empty 0 -10 0 12 -262144
-1 -1;
#X floatatom 896 258 5 0 0 0 - - -;
#X obj 846 344 pipe;
#X msg 855 277 50;
#X obj 767 322 pipe;
#X floatatom 335 341 5 0 0 0 - - -;
#X obj 306 422 / 100;
#X obj 318 529 +~ 2;
#X obj 128 549 *~ 3;
#X obj 193 779 hip~ 50;
#X obj 286 778 hip~ 50;
#X obj 488 787 hip~ 50;
#X obj 581 790 hip~ 50;
#X obj 834 776 hip~ 50;
#X obj 950 786 hip~ 50;
#X obj 1155 784 hip~ 50;
#X obj 1262 775 hip~ 50;
#X obj 321 560 /~ 2.25;
#X obj 895 291 delay 13000;
#X msg 495 312 12000;
#X obj 493 282 delay 12000;
#X obj 1141 250 delay 12000;
#X msg 1149 169 12000;
#X msg 897 321 12000;
#X obj 655 176 delay 12000;
#X msg 663 95 12000;
#X msg 353 303 57;
#X obj 87 318 *;
#X obj 940 30 inlet;
#X text 934 -60 z position;
#X text 35 737 want this to oscillate with the fade in and out, f
22;
#X obj 601 259 threshold~ 15 50 15 50;
#X obj 987 279 threshold~ 15 50 15 50;
#X text 825 -30 sets modulation depth on signal FM, f 16;
#X text 965 -40 sets max filter cutoff on signal, f 11;
#X floatatom 780 641 5 0 0 0 - - -;
#X obj 470 518 delay 5000;
#X obj 379 175 bng 19 250 50 0 empty empty empty 0 -10 0 12 -262144
-1 -1;
#X floatatom 43 289 5 0 0 0 - - -;
#X floatatom 124 300 5 0 0 0 - - -;
#X obj 93 437 +~;
#X obj 116 406 *~;
#X msg 41 269 140;
#X msg 130 276 0.333;
#X obj 203 337 * 20;
#X obj 172 367 + 20;
#X obj 921 70 / 70;
#X obj 904 99 - 5;
#X obj 343 675 *~;
#X obj 1179 571 inlet;
#X text 1225 576 level control;
#X obj 214 297 abs;
#X floatatom 345 641 5 0 0 0 - - -;
#X msg 454 447 1 150;
#X msg 713 451 0.25;
#X msg 975 503 0.25;
#X connect 8 0 48 0;
#X connect 9 0 40 1;
#X connect 12 0 59 0;
#X connect 13 0 41 1;
#X connect 23 0 67 0;
#X connect 23 1 68 0;
#X connect 23 2 69 0;
#X connect 23 3 70 0;
#X connect 23 4 71 0;
#X connect 23 5 72 0;
#X connect 23 6 73 0;
#X connect 23 7 74 0;
#X connect 24 0 43 0;
#X connect 24 0 95 0;
#X connect 25 0 44 0;
#X connect 25 0 95 0;
#X connect 26 0 109 0;
#X connect 27 0 112 0;
#X connect 28 0 113 0;
#X connect 29 0 100 0;
#X connect 29 0 84 0;
#X connect 29 0 101 0;
#X connect 29 0 85 0;
#X connect 31 0 110 0;
#X connect 32 0 106 0;
#X connect 33 0 66 0;
#X connect 34 0 32 0;
#X connect 35 0 65 0;
#X connect 37 0 99 0;
#X connect 38 0 31 0;
#X connect 39 0 40 0;
#X connect 40 0 23 1;
#X connect 41 0 23 2;
#X connect 41 0 93 0;
#X connect 42 0 41 0;
#X connect 43 0 8 0;
#X connect 43 0 53 0;
#X connect 44 0 12 0;
#X connect 44 0 58 0;
#X connect 45 0 50 0;
#X connect 46 0 55 0;
#X connect 48 0 62 0;
#X connect 48 0 89 0;
#X connect 49 0 50 0;
#X connect 50 0 39 1;
#X connect 51 0 48 0;
#X connect 52 0 51 0;
#X connect 52 0 61 0;
#X connect 53 0 82 0;
#X connect 54 0 55 0;
#X connect 55 0 42 1;
#X connect 56 0 59 0;
#X connect 57 0 56 0;
#X connect 58 0 79 0;
#X connect 59 0 60 0;
#X connect 59 0 90 0;
#X connect 60 0 42 0;
#X connect 61 0 60 1;
#X connect 61 0 62 1;
#X connect 62 0 39 0;
#X connect 63 0 64 0;
#X connect 64 0 35 0;
#X connect 65 0 75 0;
#X connect 66 0 34 0;
#X connect 67 0 15 0;
#X connect 68 0 16 0;
#X connect 69 0 17 0;
#X connect 70 0 18 0;
#X connect 71 0 19 0;
#X connect 72 0 20 0;
#X connect 73 0 21 0;
#X connect 74 0 22 0;
#X connect 75 0 34 1;
#X connect 76 0 61 0;
#X connect 77 0 62 1;
#X connect 78 0 61 0;
#X connect 79 0 56 0;
#X connect 80 0 79 1;
#X connect 81 0 60 1;
#X connect 82 0 51 0;
#X connect 83 0 82 1;
#X connect 84 0 63 0;
#X connect 85 0 37 0;
#X connect 86 0 104 0;
#X connect 89 0 111 0;
#X connect 89 0 45 0;
#X connect 89 0 77 0;
#X connect 89 0 78 0;
#X connect 89 0 94 0;
#X connect 89 1 49 0;
#X connect 90 0 111 0;
#X connect 90 0 46 0;
#X connect 90 0 81 0;
#X connect 90 0 76 0;
#X connect 90 0 94 0;
#X connect 90 1 54 0;
#X connect 94 0 38 0;
#X connect 96 0 85 0;
#X connect 96 0 98 0;
#X connect 97 0 85 1;
#X connect 98 0 33 0;
#X connect 99 0 98 1;
#X connect 100 0 96 0;
#X connect 101 0 97 0;
#X connect 102 0 103 0;
#X connect 103 0 99 1;
#X connect 104 0 105 0;
#X connect 106 0 23 0;
#X connect 107 0 106 1;
#X connect 109 0 102 0;
#X connect 110 0 32 1;
#X connect 111 0 31 0;
#X connect 111 0 94 0;
#X connect 112 0 9 0;
#X connect 113 0 13 0;
