#N canvas 0 25 1440 793 12;
#X text 190 104 upper level patch;
#X obj 483 331 mainWindow, f 97;
#X obj 478 189 inlet;
#X floatatom 431 191 5 0 0 0 - - - 0;
#X obj 481 259 *;
#X obj 624 189 inlet;
#X floatatom 577 191 5 0 0 0 - - - 0;
#X obj 600 259 *;
#X obj 737 183 inlet;
#X floatatom 690 185 5 0 0 0 - - - 0;
#X obj 713 253 *;
#X floatatom 800 185 5 0 0 0 - - - 0;
#X obj 823 253 *;
#X floatatom 956 195 5 0 0 0 - - - 0;
#X obj 979 263 *;
#X floatatom 1152 202 5 0 0 0 - - - 0;
#X obj 1175 270 *;
#X obj 1375 202 inlet;
#X floatatom 1328 204 5 0 0 0 - - - 0;
#X obj 1351 272 *;
#X text 443 113 xpos;
#X text 593 113 ypos;
#X text 708 112 zpos;
#X text 822 108 xvel;
#X text 990 124 yvel;
#X text 1177 122 zvel;
#X text 1359 120 zbody;
#X obj 805 26 loadbang;
#X obj 436 221 / 100;
#X obj 573 226 / 100;
#X obj 692 218 / 100;
#X obj 799 221 / 100;
#X obj 955 228 / 100;
#X obj 1143 236 / 100;
#X obj 1327 235 / 100;
#X msg 437 146 100;
#X msg 604 146 100;
#X msg 717 140 100;
#X msg 827 140 100;
#X msg 983 150 100;
#X msg 1179 157 100;
#X msg 1355 159 100;
#X text 348 226 scaling;
#X obj 487 504 rev1~;
#X obj 583 496 rev1~;
#X obj 681 510 rev1~;
#X obj 774 502 rev1~;
#X obj 885 505 rev1~;
#X obj 983 508 rev1~;
#X obj 1074 507 rev1~;
#X obj 1161 506 rev1~;
#X floatatom 359 445 5 0 99 0 - - - 0;
#X msg 319 418 60;
#X obj 312 324 loadbang;
#X obj 489 383 hip~;
#X obj 595 388 hip~;
#X obj 685 389 hip~;
#X obj 783 396 hip~;
#X text 205 447 adding reverb;
#X text 174 367 high passing the 4" speakers so they dont distort, f 23;
#X floatatom 428 366 5 0 0 0 - - - 0;
#X msg 378 355 100;
#X floatatom 335 540 5 0 0 0 - - - 0;
#X floatatom 411 528 5 0 0 0 - - - 0;
#X text 230 507 reduction factor, f 9;
#X text 389 482 threshold;
#X msg 312 505 10;
#X text 1197 326 note: 1st 4 outputs are top speakers which are 4" drivers \, 2nd 4 are bottoms which are 5", f 27;
#X obj 493 738 *~;
#X obj 611 739 *~;
#X obj 722 740 *~;
#X obj 810 739 *~;
#X obj 910 741 *~;
#X obj 995 736 *~;
#X obj 1094 743 *~;
#X obj 1196 737 *~;
#X obj 205 524 vsl 19 162 0 100 0 0 empty empty empty 0 -9 0 12 #fcfcfc #000000 #000000 0 1;
#X obj 312 655 / 20;
#X msg 137 465 20;
#X text 98 608 master volume (goes from 0-5), f 12;
#X floatatom 365 674 5 0 0 0 - - - 0;
#X obj 484 788 outlet~;
#X obj 599 787 outlet~;
#X obj 721 786 outlet~;
#X obj 816 784 outlet~;
#X obj 912 784 outlet~;
#X obj 993 790 outlet~;
#X obj 1093 788 outlet~;
#X obj 1190 786 outlet~;
#N canvas 0 28 1440 872 basicLimiter 0;
#X obj 322 83 inlet~;
#X obj 528 160 env~ 1024;
#X floatatom 527 199 5 0 0 0 - - - 0;
#X obj 535 242 moses;
#X text 817 172 threshold/ref;
#X text 698 166 reduction factor, f 9;
#X obj 528 287 bng 19 250 50 0 empty empty empty 0 -10 0 12 #fcfcfc #000000 #000000;
#X msg 445 352 1;
#X floatatom 585 272 5 0 0 0 - - - 0;
#X obj 592 315 expr (($f1 - $f3)/$f2)-$f1+$f3;
#X obj 417 582 line;
#X text 65 25 limiter patch taken from http://www.pd-tutorial.com/english/ch03s09.html;
#X text 377 88 signal input;
#X obj 362 665 *~;
#X floatatom 286 245 5 0 0 0 - - - 0;
#X msg 285 212 23.33;
#X floatatom 592 355 5 0 0 0 - - - 0;
#X obj 592 378 expr 100+$f1;
#X floatatom 591 413 5 0 0 0 - - - 0;
#X obj 591 436 dbtorms;
#X floatatom 586 466 5 0 0 0 - - - 0;
#X text 495 364 attack time (ms), f 10;
#X text 565 502 release time (ms), f 9;
#X obj 361 717 outlet~;
#X obj 724 203 inlet;
#X obj 803 194 inlet;
#X msg 445 376 \$1 50;
#X msg 517 513 \$1 50;
#X obj 216 178 loadbang;
#X obj 308 173 delwrite~ comp1 100;
#X obj 285 300 delread~ comp1;
#X connect 0 0 1 0;
#X connect 0 0 29 0;
#X connect 1 0 2 0;
#X connect 2 0 3 0;
#X connect 3 0 6 0;
#X connect 3 1 8 0;
#X connect 6 0 7 0;
#X connect 7 0 26 0;
#X connect 8 0 9 0;
#X connect 9 0 16 0;
#X connect 10 0 13 1;
#X connect 13 0 23 0;
#X connect 14 0 30 0;
#X connect 15 0 14 0;
#X connect 16 0 17 0;
#X connect 17 0 18 0;
#X connect 18 0 19 0;
#X connect 19 0 20 0;
#X connect 20 0 27 0;
#X connect 24 0 9 1;
#X connect 25 0 9 2;
#X connect 26 0 10 0;
#X connect 27 0 10 0;
#X connect 28 0 15 0;
#X connect 30 0 13 0;
#X restore 424 627 pd basicLimiter;
#N canvas 0 28 1440 872 basicLimiter 0;
#X obj 322 83 inlet~;
#X obj 528 160 env~ 1024;
#X floatatom 527 199 5 0 0 0 - - - 0;
#X obj 535 242 moses;
#X text 817 172 threshold/ref;
#X text 698 166 reduction factor, f 9;
#X obj 528 287 bng 19 250 50 0 empty empty empty 0 -10 0 12 #fcfcfc #000000 #000000;
#X msg 445 352 1;
#X floatatom 585 272 5 0 0 0 - - - 0;
#X obj 592 315 expr (($f1 - $f3)/$f2)-$f1+$f3;
#X obj 417 582 line;
#X text 65 25 limiter patch taken from http://www.pd-tutorial.com/english/ch03s09.html;
#X text 377 88 signal input;
#X obj 362 665 *~;
#X floatatom 286 245 5 0 0 0 - - - 0;
#X msg 285 212 23.33;
#X floatatom 592 355 5 0 0 0 - - - 0;
#X obj 592 378 expr 100+$f1;
#X floatatom 591 413 5 0 0 0 - - - 0;
#X obj 591 436 dbtorms;
#X floatatom 586 466 5 0 0 0 - - - 0;
#X text 495 364 attack time (ms), f 10;
#X text 565 502 release time (ms), f 9;
#X obj 361 717 outlet~;
#X obj 724 203 inlet;
#X obj 803 194 inlet;
#X msg 445 376 \$1 50;
#X msg 517 513 \$1 50;
#X obj 216 178 loadbang;
#X obj 308 173 delwrite~ comp2 100;
#X obj 285 300 delread~ comp2;
#X connect 0 0 1 0;
#X connect 0 0 29 0;
#X connect 1 0 2 0;
#X connect 2 0 3 0;
#X connect 3 0 6 0;
#X connect 3 1 8 0;
#X connect 6 0 7 0;
#X connect 7 0 26 0;
#X connect 8 0 9 0;
#X connect 9 0 16 0;
#X connect 10 0 13 1;
#X connect 13 0 23 0;
#X connect 14 0 30 0;
#X connect 15 0 14 0;
#X connect 16 0 17 0;
#X connect 17 0 18 0;
#X connect 18 0 19 0;
#X connect 19 0 20 0;
#X connect 20 0 27 0;
#X connect 24 0 9 1;
#X connect 25 0 9 2;
#X connect 26 0 10 0;
#X connect 27 0 10 0;
#X connect 28 0 15 0;
#X connect 30 0 13 0;
#X restore 535 627 pd basicLimiter;
#N canvas 0 28 1440 872 basicLimiter 0;
#X obj 322 83 inlet~;
#X obj 528 160 env~ 1024;
#X floatatom 527 199 5 0 0 0 - - - 0;
#X obj 535 242 moses;
#X text 817 172 threshold/ref;
#X text 698 166 reduction factor, f 9;
#X obj 528 287 bng 19 250 50 0 empty empty empty 0 -10 0 12 #fcfcfc #000000 #000000;
#X msg 445 352 1;
#X floatatom 585 272 5 0 0 0 - - - 0;
#X obj 592 315 expr (($f1 - $f3)/$f2)-$f1+$f3;
#X obj 417 582 line;
#X text 65 25 limiter patch taken from http://www.pd-tutorial.com/english/ch03s09.html;
#X text 377 88 signal input;
#X obj 362 665 *~;
#X floatatom 286 245 5 0 0 0 - - - 0;
#X msg 285 212 23.33;
#X floatatom 592 355 5 0 0 0 - - - 0;
#X obj 592 378 expr 100+$f1;
#X floatatom 591 413 5 0 0 0 - - - 0;
#X obj 591 436 dbtorms;
#X floatatom 586 466 5 0 0 0 - - - 0;
#X text 495 364 attack time (ms), f 10;
#X text 565 502 release time (ms), f 9;
#X obj 361 717 outlet~;
#X obj 724 203 inlet;
#X obj 803 194 inlet;
#X msg 445 376 \$1 50;
#X msg 517 513 \$1 50;
#X obj 216 178 loadbang;
#X obj 308 173 delwrite~ comp3 100;
#X obj 285 300 delread~ comp3;
#X connect 0 0 1 0;
#X connect 0 0 29 0;
#X connect 1 0 2 0;
#X connect 2 0 3 0;
#X connect 3 0 6 0;
#X connect 3 1 8 0;
#X connect 6 0 7 0;
#X connect 7 0 26 0;
#X connect 8 0 9 0;
#X connect 9 0 16 0;
#X connect 10 0 13 1;
#X connect 13 0 23 0;
#X connect 14 0 30 0;
#X connect 15 0 14 0;
#X connect 16 0 17 0;
#X connect 17 0 18 0;
#X connect 18 0 19 0;
#X connect 19 0 20 0;
#X connect 20 0 27 0;
#X connect 24 0 9 1;
#X connect 25 0 9 2;
#X connect 26 0 10 0;
#X connect 27 0 10 0;
#X connect 28 0 15 0;
#X connect 30 0 13 0;
#X restore 654 626 pd basicLimiter;
#N canvas 0 28 1440 872 basicLimiter 0;
#X obj 322 83 inlet~;
#X obj 528 160 env~ 1024;
#X floatatom 527 199 5 0 0 0 - - - 0;
#X obj 535 242 moses;
#X text 817 172 threshold/ref;
#X text 698 166 reduction factor, f 9;
#X obj 528 287 bng 19 250 50 0 empty empty empty 0 -10 0 12 #fcfcfc #000000 #000000;
#X msg 445 352 1;
#X floatatom 585 272 5 0 0 0 - - - 0;
#X obj 592 315 expr (($f1 - $f3)/$f2)-$f1+$f3;
#X obj 417 582 line;
#X text 65 25 limiter patch taken from http://www.pd-tutorial.com/english/ch03s09.html;
#X text 377 88 signal input;
#X obj 362 665 *~;
#X floatatom 286 245 5 0 0 0 - - - 0;
#X msg 285 212 23.33;
#X floatatom 592 355 5 0 0 0 - - - 0;
#X obj 592 378 expr 100+$f1;
#X floatatom 591 413 5 0 0 0 - - - 0;
#X obj 591 436 dbtorms;
#X floatatom 586 466 5 0 0 0 - - - 0;
#X text 495 364 attack time (ms), f 10;
#X text 565 502 release time (ms), f 9;
#X obj 361 717 outlet~;
#X obj 724 203 inlet;
#X obj 803 194 inlet;
#X msg 445 376 \$1 50;
#X msg 517 513 \$1 50;
#X obj 216 178 loadbang;
#X obj 308 173 delwrite~ comp4 100;
#X obj 285 300 delread~ comp4;
#X connect 0 0 1 0;
#X connect 0 0 29 0;
#X connect 1 0 2 0;
#X connect 2 0 3 0;
#X connect 3 0 6 0;
#X connect 3 1 8 0;
#X connect 6 0 7 0;
#X connect 7 0 26 0;
#X connect 8 0 9 0;
#X connect 9 0 16 0;
#X connect 10 0 13 1;
#X connect 13 0 23 0;
#X connect 14 0 30 0;
#X connect 15 0 14 0;
#X connect 16 0 17 0;
#X connect 17 0 18 0;
#X connect 18 0 19 0;
#X connect 19 0 20 0;
#X connect 20 0 27 0;
#X connect 24 0 9 1;
#X connect 25 0 9 2;
#X connect 26 0 10 0;
#X connect 27 0 10 0;
#X connect 28 0 15 0;
#X connect 30 0 13 0;
#X restore 769 627 pd basicLimiter;
#N canvas 0 28 1440 872 basicLimiter 0;
#X obj 322 83 inlet~;
#X obj 528 160 env~ 1024;
#X floatatom 527 199 5 0 0 0 - - - 0;
#X obj 535 242 moses;
#X text 817 172 threshold/ref;
#X text 698 166 reduction factor, f 9;
#X obj 528 287 bng 19 250 50 0 empty empty empty 0 -10 0 12 #fcfcfc #000000 #000000;
#X msg 445 352 1;
#X floatatom 585 272 5 0 0 0 - - - 0;
#X obj 592 315 expr (($f1 - $f3)/$f2)-$f1+$f3;
#X obj 417 582 line;
#X text 65 25 limiter patch taken from http://www.pd-tutorial.com/english/ch03s09.html;
#X text 377 88 signal input;
#X obj 362 665 *~;
#X floatatom 286 245 5 0 0 0 - - - 0;
#X msg 285 212 23.33;
#X floatatom 592 355 5 0 0 0 - - - 0;
#X obj 592 378 expr 100+$f1;
#X floatatom 591 413 5 0 0 0 - - - 0;
#X obj 591 436 dbtorms;
#X floatatom 586 466 5 0 0 0 - - - 0;
#X text 495 364 attack time (ms), f 10;
#X text 565 502 release time (ms), f 9;
#X obj 361 717 outlet~;
#X obj 724 203 inlet;
#X obj 803 194 inlet;
#X msg 445 376 \$1 50;
#X msg 517 513 \$1 50;
#X obj 216 178 loadbang;
#X obj 308 173 delwrite~ comp5 100;
#X obj 285 300 delread~ comp5;
#X connect 0 0 1 0;
#X connect 0 0 29 0;
#X connect 1 0 2 0;
#X connect 2 0 3 0;
#X connect 3 0 6 0;
#X connect 3 1 8 0;
#X connect 6 0 7 0;
#X connect 7 0 26 0;
#X connect 8 0 9 0;
#X connect 9 0 16 0;
#X connect 10 0 13 1;
#X connect 13 0 23 0;
#X connect 14 0 30 0;
#X connect 15 0 14 0;
#X connect 16 0 17 0;
#X connect 17 0 18 0;
#X connect 18 0 19 0;
#X connect 19 0 20 0;
#X connect 20 0 27 0;
#X connect 24 0 9 1;
#X connect 25 0 9 2;
#X connect 26 0 10 0;
#X connect 27 0 10 0;
#X connect 28 0 15 0;
#X connect 30 0 13 0;
#X restore 882 628 pd basicLimiter;
#N canvas 0 28 1440 872 basicLimiter 0;
#X obj 322 83 inlet~;
#X obj 528 160 env~ 1024;
#X floatatom 527 199 5 0 0 0 - - - 0;
#X obj 535 242 moses;
#X text 817 172 threshold/ref;
#X text 698 166 reduction factor, f 9;
#X obj 528 287 bng 19 250 50 0 empty empty empty 0 -10 0 12 #fcfcfc #000000 #000000;
#X msg 445 352 1;
#X floatatom 585 272 5 0 0 0 - - - 0;
#X obj 592 315 expr (($f1 - $f3)/$f2)-$f1+$f3;
#X obj 417 582 line;
#X text 65 25 limiter patch taken from http://www.pd-tutorial.com/english/ch03s09.html;
#X text 377 88 signal input;
#X obj 362 665 *~;
#X floatatom 286 245 5 0 0 0 - - - 0;
#X msg 285 212 23.33;
#X floatatom 592 355 5 0 0 0 - - - 0;
#X obj 592 378 expr 100+$f1;
#X floatatom 591 413 5 0 0 0 - - - 0;
#X obj 591 436 dbtorms;
#X floatatom 586 466 5 0 0 0 - - - 0;
#X text 495 364 attack time (ms), f 10;
#X text 565 502 release time (ms), f 9;
#X obj 361 717 outlet~;
#X obj 724 203 inlet;
#X obj 803 194 inlet;
#X msg 445 376 \$1 50;
#X msg 517 513 \$1 50;
#X obj 216 178 loadbang;
#X obj 308 173 delwrite~ comp6 100;
#X obj 285 300 delread~ comp6;
#X connect 0 0 1 0;
#X connect 0 0 29 0;
#X connect 1 0 2 0;
#X connect 2 0 3 0;
#X connect 3 0 6 0;
#X connect 3 1 8 0;
#X connect 6 0 7 0;
#X connect 7 0 26 0;
#X connect 8 0 9 0;
#X connect 9 0 16 0;
#X connect 10 0 13 1;
#X connect 13 0 23 0;
#X connect 14 0 30 0;
#X connect 15 0 14 0;
#X connect 16 0 17 0;
#X connect 17 0 18 0;
#X connect 18 0 19 0;
#X connect 19 0 20 0;
#X connect 20 0 27 0;
#X connect 24 0 9 1;
#X connect 25 0 9 2;
#X connect 26 0 10 0;
#X connect 27 0 10 0;
#X connect 28 0 15 0;
#X connect 30 0 13 0;
#X restore 997 628 pd basicLimiter;
#N canvas 0 28 1440 872 basicLimiter 0;
#X obj 322 83 inlet~;
#X obj 528 160 env~ 1024;
#X floatatom 527 199 5 0 0 0 - - - 0;
#X obj 535 242 moses;
#X text 817 172 threshold/ref;
#X text 698 166 reduction factor, f 9;
#X obj 528 287 bng 19 250 50 0 empty empty empty 0 -10 0 12 #fcfcfc #000000 #000000;
#X msg 445 352 1;
#X floatatom 585 272 5 0 0 0 - - - 0;
#X obj 592 315 expr (($f1 - $f3)/$f2)-$f1+$f3;
#X obj 417 582 line;
#X text 65 25 limiter patch taken from http://www.pd-tutorial.com/english/ch03s09.html;
#X text 377 88 signal input;
#X obj 362 665 *~;
#X floatatom 286 245 5 0 0 0 - - - 0;
#X msg 285 212 23.33;
#X floatatom 592 355 5 0 0 0 - - - 0;
#X obj 592 378 expr 100+$f1;
#X floatatom 591 413 5 0 0 0 - - - 0;
#X obj 591 436 dbtorms;
#X floatatom 586 466 5 0 0 0 - - - 0;
#X text 495 364 attack time (ms), f 10;
#X text 565 502 release time (ms), f 9;
#X obj 361 717 outlet~;
#X obj 724 203 inlet;
#X obj 803 194 inlet;
#X msg 445 376 \$1 50;
#X msg 517 513 \$1 50;
#X obj 216 178 loadbang;
#X obj 308 173 delwrite~ comp7 100;
#X obj 285 300 delread~ comp7;
#X connect 0 0 1 0;
#X connect 0 0 29 0;
#X connect 1 0 2 0;
#X connect 2 0 3 0;
#X connect 3 0 6 0;
#X connect 3 1 8 0;
#X connect 6 0 7 0;
#X connect 7 0 26 0;
#X connect 8 0 9 0;
#X connect 9 0 16 0;
#X connect 10 0 13 1;
#X connect 13 0 23 0;
#X connect 14 0 30 0;
#X connect 15 0 14 0;
#X connect 16 0 17 0;
#X connect 17 0 18 0;
#X connect 18 0 19 0;
#X connect 19 0 20 0;
#X connect 20 0 27 0;
#X connect 24 0 9 1;
#X connect 25 0 9 2;
#X connect 26 0 10 0;
#X connect 27 0 10 0;
#X connect 28 0 15 0;
#X connect 30 0 13 0;
#X restore 1116 630 pd basicLimiter;
#N canvas 0 28 1440 872 basicLimiter 0;
#X obj 322 83 inlet~;
#X obj 528 160 env~ 1024;
#X floatatom 527 199 5 0 0 0 - - - 0;
#X obj 535 242 moses;
#X text 817 172 threshold/ref;
#X text 698 166 reduction factor, f 9;
#X obj 528 287 bng 19 250 50 0 empty empty empty 0 -10 0 12 #fcfcfc #000000 #000000;
#X msg 445 352 1;
#X floatatom 585 272 5 0 0 0 - - - 0;
#X obj 592 315 expr (($f1 - $f3)/$f2)-$f1+$f3;
#X obj 417 582 line;
#X text 65 25 limiter patch taken from http://www.pd-tutorial.com/english/ch03s09.html;
#X text 377 88 signal input;
#X obj 362 665 *~;
#X floatatom 286 245 5 0 0 0 - - - 0;
#X msg 285 212 23.33;
#X floatatom 592 355 5 0 0 0 - - - 0;
#X obj 592 378 expr 100+$f1;
#X floatatom 591 413 5 0 0 0 - - - 0;
#X obj 591 436 dbtorms;
#X floatatom 586 466 5 0 0 0 - - - 0;
#X text 495 364 attack time (ms), f 10;
#X text 565 502 release time (ms), f 9;
#X obj 361 717 outlet~;
#X obj 724 203 inlet;
#X obj 803 194 inlet;
#X msg 445 376 \$1 50;
#X msg 517 513 \$1 50;
#X obj 216 178 loadbang;
#X obj 308 173 delwrite~ comp8 100;
#X obj 285 300 delread~ comp8;
#X connect 0 0 1 0;
#X connect 0 0 29 0;
#X connect 1 0 2 0;
#X connect 2 0 3 0;
#X connect 3 0 6 0;
#X connect 3 1 8 0;
#X connect 6 0 7 0;
#X connect 7 0 26 0;
#X connect 8 0 9 0;
#X connect 9 0 16 0;
#X connect 10 0 13 1;
#X connect 13 0 23 0;
#X connect 14 0 30 0;
#X connect 15 0 14 0;
#X connect 16 0 17 0;
#X connect 17 0 18 0;
#X connect 18 0 19 0;
#X connect 19 0 20 0;
#X connect 20 0 27 0;
#X connect 24 0 9 1;
#X connect 25 0 9 2;
#X connect 26 0 10 0;
#X connect 27 0 10 0;
#X connect 28 0 15 0;
#X connect 30 0 13 0;
#X restore 1236 631 pd basicLimiter;
#X msg 376 498 60;
#X obj 489 443 hip~;
#X obj 595 448 hip~;
#X obj 685 449 hip~;
#X obj 783 456 hip~;
#X obj 870 405 hip~;
#X obj 969 403 hip~;
#X obj 1059 404 hip~;
#X obj 1157 411 hip~;
#X obj 852 188 velocityCalc;
#X obj 1207 212 velocityCalc;
#X obj 1004 201 velocityCalc;
#X connect 1 0 54 0;
#X connect 1 1 55 0;
#X connect 1 2 56 0;
#X connect 1 3 57 0;
#X connect 1 4 102 0;
#X connect 1 5 103 0;
#X connect 1 6 104 0;
#X connect 1 7 105 0;
#X connect 2 0 4 1;
#X connect 3 0 28 0;
#X connect 4 0 1 0;
#X connect 5 0 7 1;
#X connect 6 0 29 0;
#X connect 7 0 1 1;
#X connect 8 0 10 1;
#X connect 9 0 30 0;
#X connect 10 0 1 2;
#X connect 11 0 31 0;
#X connect 12 0 1 3;
#X connect 13 0 32 0;
#X connect 14 0 1 4;
#X connect 15 0 33 0;
#X connect 16 0 1 5;
#X connect 17 0 19 1;
#X connect 18 0 34 0;
#X connect 19 0 1 6;
#X connect 27 0 35 0;
#X connect 27 0 36 0;
#X connect 27 0 37 0;
#X connect 27 0 38 0;
#X connect 27 0 39 0;
#X connect 27 0 40 0;
#X connect 27 0 41 0;
#X connect 28 0 4 0;
#X connect 29 0 7 0;
#X connect 30 0 10 0;
#X connect 31 0 12 0;
#X connect 32 0 14 0;
#X connect 33 0 16 0;
#X connect 34 0 19 0;
#X connect 35 0 3 0;
#X connect 36 0 6 0;
#X connect 37 0 9 0;
#X connect 38 0 11 0;
#X connect 38 0 106 0;
#X connect 39 0 13 0;
#X connect 39 0 108 0;
#X connect 40 0 15 0;
#X connect 40 0 107 0;
#X connect 41 0 18 0;
#X connect 43 0 89 0;
#X connect 44 0 90 0;
#X connect 45 0 91 0;
#X connect 46 0 92 0;
#X connect 47 0 93 0;
#X connect 48 0 94 0;
#X connect 49 0 95 0;
#X connect 50 0 96 0;
#X connect 51 0 43 1;
#X connect 51 0 44 1;
#X connect 51 0 45 1;
#X connect 51 0 46 1;
#X connect 51 0 47 1;
#X connect 51 0 48 1;
#X connect 51 0 49 1;
#X connect 51 0 50 1;
#X connect 52 0 51 0;
#X connect 53 0 52 0;
#X connect 53 0 61 0;
#X connect 53 0 66 0;
#X connect 53 0 97 0;
#X connect 53 0 78 0;
#X connect 54 0 98 0;
#X connect 55 0 99 0;
#X connect 56 0 100 0;
#X connect 57 0 101 0;
#X connect 60 0 54 1;
#X connect 60 0 55 1;
#X connect 60 0 56 1;
#X connect 60 0 57 1;
#X connect 60 0 102 1;
#X connect 60 0 103 1;
#X connect 60 0 104 1;
#X connect 60 0 105 1;
#X connect 60 0 98 1;
#X connect 60 0 99 1;
#X connect 60 0 100 1;
#X connect 60 0 101 1;
#X connect 61 0 60 0;
#X connect 62 0 89 1;
#X connect 62 0 90 1;
#X connect 62 0 91 1;
#X connect 62 0 92 1;
#X connect 62 0 93 1;
#X connect 62 0 94 1;
#X connect 62 0 95 1;
#X connect 62 0 96 1;
#X connect 63 0 89 2;
#X connect 63 0 90 2;
#X connect 63 0 91 2;
#X connect 63 0 92 2;
#X connect 63 0 93 2;
#X connect 63 0 94 2;
#X connect 63 0 95 2;
#X connect 63 0 96 2;
#X connect 66 0 62 0;
#X connect 68 0 81 0;
#X connect 69 0 82 0;
#X connect 70 0 83 0;
#X connect 71 0 84 0;
#X connect 72 0 85 0;
#X connect 73 0 86 0;
#X connect 74 0 87 0;
#X connect 75 0 88 0;
#X connect 76 0 77 0;
#X connect 77 0 80 0;
#X connect 78 0 76 0;
#X connect 80 0 68 1;
#X connect 80 0 69 1;
#X connect 80 0 70 1;
#X connect 80 0 71 1;
#X connect 80 0 72 1;
#X connect 80 0 73 1;
#X connect 80 0 74 1;
#X connect 80 0 75 1;
#X connect 89 0 68 0;
#X connect 90 0 69 0;
#X connect 91 0 70 0;
#X connect 92 0 71 0;
#X connect 93 0 72 0;
#X connect 94 0 73 0;
#X connect 95 0 74 0;
#X connect 96 0 75 0;
#X connect 97 0 63 0;
#X connect 98 0 43 0;
#X connect 99 0 44 0;
#X connect 100 0 45 0;
#X connect 101 0 46 0;
#X connect 102 0 47 0;
#X connect 103 0 48 0;
#X connect 104 0 49 0;
#X connect 105 0 50 0;
#X connect 106 0 12 1;
#X connect 107 0 16 1;
#X connect 108 0 14 1;
