#N canvas 0 50 829 499 12;
#X text 403 40 This will probs become an inlet later, f 15;
#X text 107 23 square wave osc with pwm;
#X obj 164 124 phasor~;
#X obj 213 208 expr~ $v1 > $v2;
#X obj 328 73 / 100;
#X floatatom 332 35 5 0 0 0 - - - 0;
#X floatatom 140 61 5 0 0 0 - - - 0;
#X obj 339 113 osc~;
#X obj 371 159 +~ 1.5;
#X obj 374 190 /~ 3;
#X obj 110 435 *~;
#X obj 97 516 *~;
#X obj 493 421 *~;
#X obj 494 489 *~;
#X text 131 523 15;
#X text 553 496 37;
#X obj 164 297 osc~;
#X obj 508 300 osc~;
#X msg 245 323 0;
#X msg 594 345 0;
#X obj 599 213 loadbang;
#X msg 545 262 1.57;
#X msg 221 267 10;
#X obj 188 646 output~;
#X obj 115 347 expr~ $v1 > $v2;
#X obj 464 369 expr~ $v1 > $v2;
#X obj 36 248 output~;
#X connect 2 0 3 0;
#X connect 3 0 11 1;
#X connect 3 0 13 0;
#X connect 3 0 26 0;
#X connect 4 0 7 0;
#X connect 5 0 4 0;
#X connect 6 0 2 0;
#X connect 7 0 8 0;
#X connect 8 0 9 0;
#X connect 9 0 3 1;
#X connect 10 0 11 0;
#X connect 11 0 23 0;
#X connect 12 0 13 1;
#X connect 13 0 23 1;
#X connect 16 0 10 1;
#X connect 16 0 24 0;
#X connect 17 0 12 1;
#X connect 17 0 25 0;
#X connect 18 0 24 1;
#X connect 19 0 25 1;
#X connect 20 0 19 0;
#X connect 20 0 18 0;
#X connect 20 0 21 0;
#X connect 20 0 22 0;
#X connect 21 0 17 1;
#X connect 22 0 17 0;
#X connect 22 0 16 0;
#X connect 24 0 10 0;
#X connect 25 0 12 0;
