#N canvas 0 25 1440 793 12;
#X obj 459 82 inlet;
#X floatatom 557 163 5 0 0 0 - - - 0;
#X floatatom 454 192 5 0 0 0 - - - 0;
#X obj 484 296 -;
#X obj 533 971 outlet;
#X floatatom 322 104 5 0 0 0 - - - 0;
#X msg 201 60 0;
#X msg 265 54 15;
#X msg 326 55 -30;
#X floatatom 336 265 5 0 0 0 - - - 0;
#X obj 776 296 bng 19 250 50 0 empty empty empty 0 -10 0 12 #fcfcfc #000000 #000000;
#X obj 538 115 pipe;
#X floatatom 694 88 5 0 0 0 - - - 0;
#X obj 691 32 loadbang;
#X floatatom 425 366 5 0 0 0 - - - 0;
#X obj 464 387 pipe;
#X floatatom 464 411 5 0 0 0 - - - 0;
#X obj 502 433 pipe;
#X floatatom 503 457 5 0 0 0 - - - 0;
#X obj 547 481 pipe;
#X floatatom 544 506 5 0 0 0 - - - 0;
#X obj 445 452 +;
#X obj 521 536 +;
#X obj 489 687 +;
#X floatatom 504 775 5 0 0 0 - - - 0;
#X floatatom 518 594 5 0 0 0 - - - 0;
#X floatatom 437 501 5 0 0 0 - - - 0;
#X floatatom 590 552 5 0 0 0 - - - 0;
#X obj 629 573 pipe;
#X floatatom 629 597 5 0 0 0 - - - 0;
#X obj 667 619 pipe;
#X floatatom 668 643 5 0 0 0 - - - 0;
#X obj 712 667 pipe;
#X floatatom 709 692 5 0 0 0 - - - 0;
#X obj 610 638 +;
#X obj 686 722 +;
#X floatatom 683 780 5 0 0 0 - - - 0;
#X floatatom 602 687 5 0 0 0 - - - 0;
#X obj 589 526 pipe;
#X obj 632 815 +;
#X floatatom 606 859 5 0 0 0 - - - 0;
#X obj 533 882 +;
#X floatatom 533 911 5 0 0 0 - - - 0;
#X obj 533 934 / 8;
#X floatatom 608 964 5 0 0 0 - - - 0;
#X msg 696 58 15;
#X connect 0 0 2 0;
#X connect 0 0 11 0;
#X connect 1 0 3 1;
#X connect 2 0 3 0;
#X connect 3 0 9 0;
#X connect 3 0 14 0;
#X connect 5 0 2 0;
#X connect 5 0 11 0;
#X connect 6 0 5 0;
#X connect 7 0 5 0;
#X connect 8 0 5 0;
#X connect 10 0 2 0;
#X connect 10 0 20 0;
#X connect 10 0 26 0;
#X connect 10 0 25 0;
#X connect 10 0 11 0;
#X connect 10 0 33 0;
#X connect 10 0 36 0;
#X connect 10 0 37 0;
#X connect 10 0 40 0;
#X connect 10 0 42 0;
#X connect 10 0 27 0;
#X connect 10 0 29 0;
#X connect 11 0 1 0;
#X connect 11 0 10 0;
#X connect 12 0 11 1;
#X connect 12 0 15 1;
#X connect 12 0 17 1;
#X connect 12 0 19 1;
#X connect 12 0 38 1;
#X connect 12 0 28 1;
#X connect 12 0 30 1;
#X connect 12 0 32 1;
#X connect 13 0 45 0;
#X connect 13 0 10 0;
#X connect 14 0 21 0;
#X connect 14 0 15 0;
#X connect 15 0 16 0;
#X connect 16 0 21 1;
#X connect 16 0 17 0;
#X connect 17 0 18 0;
#X connect 18 0 22 0;
#X connect 18 0 19 0;
#X connect 19 0 20 0;
#X connect 20 0 22 1;
#X connect 20 0 38 0;
#X connect 21 0 26 0;
#X connect 22 0 25 0;
#X connect 23 0 24 0;
#X connect 24 0 41 0;
#X connect 25 0 23 1;
#X connect 26 0 23 0;
#X connect 27 0 34 0;
#X connect 27 0 28 0;
#X connect 28 0 29 0;
#X connect 29 0 34 1;
#X connect 29 0 30 0;
#X connect 30 0 31 0;
#X connect 31 0 35 0;
#X connect 31 0 32 0;
#X connect 32 0 33 0;
#X connect 33 0 35 1;
#X connect 34 0 37 0;
#X connect 35 0 36 0;
#X connect 36 0 39 1;
#X connect 37 0 39 0;
#X connect 38 0 27 0;
#X connect 39 0 40 0;
#X connect 40 0 41 1;
#X connect 41 0 42 0;
#X connect 42 0 43 0;
#X connect 43 0 4 0;
#X connect 43 0 44 0;
#X connect 45 0 12 0;
