#N canvas 2 98 958 982 12;
#X obj 158 240 oscparse;
#X msg 103 92 listen 5005;
#X obj 110 171 netreceive -u -b;
#X obj 158 294 list trim;
#X text 225 85 listens for the x \, y \, z \, velocity \, and angle
data;
#X text 216 726 outputs audio and which speaker it should go to \,
send digitally from python through i2s i think...;
#X obj 157 356 route x_pos;
#X obj 246 356 route y_pos;
#X obj 334 356 route z_pos;
#X obj 422 356 route x_vel;
#X obj 512 356 route y_vel;
#X obj 607 356 route z_vel;
#X obj 697 356 route body;
#X floatatom 607 381 5 0 0 0 - - -;
#X floatatom 512 381 5 0 0 0 - - -;
#X floatatom 422 381 5 0 0 0 - - -;
#X floatatom 334 381 5 0 0 0 - - -;
#X floatatom 157 381 5 0 0 0 - - -;
#X floatatom 246 381 5 0 0 0 - - -;
#X floatatom 697 381 5 0 0 0 - - -;
#X connect 0 0 3 0;
#X connect 1 0 2 0;
#X connect 2 0 0 0;
#X connect 3 0 6 0;
#X connect 3 0 7 0;
#X connect 3 0 8 0;
#X connect 3 0 9 0;
#X connect 3 0 10 0;
#X connect 3 0 11 0;
#X connect 3 0 12 0;
#X connect 6 0 17 0;
#X connect 7 0 18 0;
#X connect 8 0 16 0;
#X connect 9 0 15 0;
#X connect 10 0 14 0;
#X connect 11 0 13 0;
#X connect 12 0 19 0;
